<svg width="600" height="452" viewBox="0 0 600 452" fill="none" xmlns="http://www.w3.org/2000/svg">
<path d="M435.96 43.7635H166.77V233.947H435.96V43.7635Z" fill="#E6E6E6"/>
<path d="M239.385 173.521C231.301 173.516 223.4 171.11 216.679 166.607C209.96 162.102 204.724 155.699 201.632 148.211C198.541 140.722 197.733 132.483 199.311 124.534C200.891 116.586 204.785 109.285 210.502 103.555C216.219 97.8253 223.502 93.9238 231.431 92.3437C239.36 90.7637 247.577 91.5761 255.046 94.6783C262.513 97.7805 268.897 103.033 273.387 109.772C277.878 116.511 280.275 124.434 280.275 132.539C280.263 143.406 275.95 153.826 268.285 161.509C260.617 169.193 250.224 173.512 239.385 173.521ZM239.385 102.596C233.479 102.599 227.706 104.358 222.797 107.65C217.887 110.941 214.062 115.619 211.804 121.091C209.545 126.562 208.956 132.582 210.11 138.39C211.264 144.197 214.11 149.531 218.287 153.716C222.464 157.903 227.787 160.753 233.579 161.907C239.372 163.062 245.376 162.467 250.832 160.2C256.289 157.934 260.952 154.096 264.232 149.172C267.514 144.248 269.264 138.459 269.264 132.539C269.256 124.597 266.106 116.984 260.503 111.369C254.901 105.755 247.306 102.6 239.385 102.596Z" fill="white"/>
<path d="M280.275 132.539H269.264C269.254 124.598 266.101 116.987 260.499 111.374C254.898 105.761 247.305 102.604 239.385 102.596V91.5574C250.224 91.5654 260.619 95.8851 268.285 103.568C275.95 111.252 280.263 121.671 280.275 132.539Z" fill="#24285B"/>
<path d="M239.385 173.52V162.421C247.305 162.413 254.898 159.256 260.499 153.643C266.101 148.031 269.254 140.419 269.264 132.479H280.275C280.279 143.357 275.973 153.791 268.306 161.488C260.638 169.185 250.235 173.512 239.385 173.52Z" fill="#F54748"/>
<path d="M341.685 215.463L339.374 233.481L398.25 233.752L393.615 215.463H341.685Z" fill="#24285B"/>
<path opacity="0.08" d="M353.101 73.5559C353.101 73.5559 344.611 74.6838 344.611 87.2264C344.611 99.7689 351.51 108.055 347.13 115.951C342.75 123.846 294.736 114.071 303 182.498L263.895 152.42C263.895 152.42 254.145 164.255 266.011 178.258C277.875 192.259 308.611 233.105 308.611 233.105H349.996L352.71 197.477L361.501 105.048L362.37 80.6092L353.101 73.5559Z" fill="black"/>
<path d="M347.13 112.191C347.13 112.191 306.435 114.913 315.03 188.89L273.36 155.804L266.235 162.421C266.235 162.421 307.74 235.06 338.235 206.682L347.13 112.191Z" fill="#921616"/>
<path opacity="0.08" d="M347.13 112.191C347.13 112.191 306.435 114.913 315.03 188.89L273.36 155.804L266.235 162.421C266.235 162.421 307.74 235.06 338.235 206.682L347.13 112.191Z" fill="black"/>
<path d="M356.685 110.507L369.525 110.928C369.525 110.928 409.11 113.695 415.11 137.005C421.11 160.316 393.615 215.463 393.615 215.463H341.699C341.699 215.463 296.76 114.477 356.685 110.507Z" fill="#921616"/>
<path d="M54.8248 187.551H38.1148V218.051H54.8248V187.551Z" fill="#F54748"/>
<path opacity="0.08" d="M389.266 128.388C389.266 128.388 366 135.351 374.235 160.061C382.47 184.769 375.136 214.201 356.685 215.463H393.615L411.121 167.459L389.266 128.388Z" fill="black"/>
<path d="M383.76 140.449C383.264 126.117 401.505 119.395 410.294 130.734C415.244 137.095 418.769 145.774 418.275 157.684C416.774 193.402 407.505 233.48 407.505 233.48L391.259 233.827C391.259 233.827 395.64 198.546 388.259 171.911C385.533 161.637 384.022 151.077 383.76 140.449Z" fill="#921616"/>
<path opacity="0.46" d="M383.76 140.449C383.264 126.117 401.505 119.395 410.294 130.734C415.244 137.095 418.769 145.774 418.275 157.684C416.774 193.402 407.505 233.48 407.505 233.48L391.259 233.827C391.259 233.827 395.64 198.546 388.259 171.911C385.533 161.637 384.022 151.077 383.76 140.449Z" fill="white"/>
<path d="M448.035 248.67L405 196.334L394.919 203.206C394.919 203.206 424.74 269.649 438.705 269.875C452.67 270.1 448.035 248.67 448.035 248.67Z" fill="#921616"/>
<path opacity="0.08" d="M448.035 248.67L405 196.334L394.919 203.206C394.919 203.206 424.74 269.649 438.705 269.875C452.67 270.1 448.035 248.67 448.035 248.67Z" fill="black"/>
<path d="M112.17 233.886L83.9999 270.521L63.6148 211.509C63.6148 211.509 56.1148 205.117 51.1199 210.381C46.1248 215.644 58.6199 219.645 58.6199 219.645C58.6199 219.645 55.6199 287.801 81.1199 293.833C100.95 298.509 148.499 272.206 144.285 241.963C142.14 226.306 121.8 221.374 112.17 233.886Z" fill="#F87E7F"/>
<path opacity="0.45" d="M303.899 419.423C445.146 419.423 559.65 410.414 559.65 399.3C559.65 388.187 445.146 379.179 303.899 379.179C162.652 379.179 48.1498 388.187 48.1498 399.3C48.1498 410.414 162.652 419.423 303.899 419.423Z" fill="#E6E6E6"/>
<path d="M356.281 82.8046C355.476 86.6746 355.2 90.6356 355.455 94.5801C355.592 95.5125 356.093 96.3524 356.846 96.9161C357.599 97.4797 358.545 97.7214 359.475 97.5879C360.985 97.4753 362.43 96.9288 363.638 96.0139C364.846 95.0991 365.765 93.8546 366.285 92.4295L369.121 86.5042C369.56 85.2593 369.604 83.9085 369.247 82.6374C368.89 81.3663 368.149 80.2373 367.125 79.4058C363.495 76.1273 357 78.5185 356.281 82.8046Z" fill="#F87E7F"/>
<path d="M368.611 87.6324L369.525 110.928L356.685 110.507L361.17 93.7383L368.611 87.6324Z" fill="#F87E7F"/>
<path d="M357.989 83.3011C360.152 83.6428 362.346 83.7337 364.53 83.5718C363.787 84.4571 363.318 85.5412 363.181 86.6904C363.046 87.8396 363.248 89.0035 363.765 90.0386C364.247 91.048 365.064 91.8579 366.076 92.3299C367.09 92.8017 368.234 92.9062 369.315 92.6253L370.275 83.6019C370.464 82.2991 370.298 80.9691 369.793 79.7535C369.29 78.5379 368.466 77.4822 367.409 76.699C366.497 76.032 365.545 75.4194 364.56 74.8642C362.07 73.5107 358.05 74.789 355.934 72.7587C355.719 72.5526 355.455 72.4063 355.168 72.3339C354.879 72.2617 354.577 72.266 354.29 72.3464C354.004 72.4268 353.744 72.5807 353.536 72.7927C353.326 73.0049 353.176 73.2679 353.099 73.5558C352.365 76.2628 352.35 80.6542 355.89 82.5792C356.542 82.9406 357.254 83.1849 357.989 83.3011Z" fill="#24285B"/>
<path d="M363 89.7378C363 89.7378 363.375 87.0156 365.385 87.4669C367.395 87.918 366.885 91.8432 364.064 91.8883L363 89.7378Z" fill="#F87E7F"/>
<path d="M355.589 87.2262L353.31 89.7227C353.179 89.8626 353.086 90.0337 353.04 90.2196C352.993 90.4055 352.995 90.6003 353.044 90.7853C353.094 90.9705 353.191 91.1398 353.324 91.2776C353.456 91.4154 353.621 91.5167 353.805 91.5725L356.43 92.3996L355.589 87.2262Z" fill="#F87E7F"/>
<path opacity="0.31" d="M360 97.3623C361.662 97.1687 363.23 96.4828 364.501 95.3922C364.501 95.3922 363.811 99.6031 358.681 103.228L360 97.3623Z" fill="#CE8172"/>
<path d="M429.855 377.057C429.855 377.057 429.78 382.983 425.16 385.028C420.54 387.073 420.901 392.157 425.595 391.902C430.29 391.645 439.411 382.321 439.411 382.321L436.02 373.734L429.855 377.057Z" fill="#921616"/>
<path d="M448.035 314.827C448.035 314.827 420.51 316.045 423.51 334.768C426.51 353.492 438.644 373.734 438.644 373.734L428.07 378.246C428.07 378.246 407.07 354.064 405 324.241C402.93 294.418 445.064 300.975 448.035 314.827Z" fill="#24285B"/>
<path opacity="0.08" d="M448.035 314.827C448.035 314.827 420.51 316.045 423.51 334.768C426.51 353.492 438.644 373.734 438.644 373.734L428.07 378.246C428.07 378.246 407.07 354.064 405 324.241C402.93 294.418 445.064 300.975 448.035 314.827Z" fill="black"/>
<path d="M407.745 378.336C407.745 378.336 407.655 384.351 403.05 386.306C398.446 388.261 398.791 393.45 403.485 393.18C408.18 392.909 417.301 383.615 417.301 383.615L413.91 375.027L407.745 378.336Z" fill="#921616"/>
<path d="M469.35 323.159H463.141V376.863H469.35V323.159Z" fill="#F54748"/>
<path opacity="0.46" d="M469.35 323.159H463.141V376.863H469.35V323.159Z" fill="white"/>
<path d="M486.826 192.98C486.826 192.98 492.525 162.271 520.02 176.167C540.299 186.408 520.499 268.1 508.679 310.33C506.66 317.548 502.344 323.909 496.387 328.442C490.43 332.977 483.158 335.435 475.681 335.445H436.83C424.98 335.445 422.864 318.496 434.34 315.548L435.03 315.383C441.705 313.879 449.55 312.615 456.705 311.668C462.738 310.878 468.317 308.028 472.501 303.6C476.686 299.171 479.223 293.434 479.685 287.35L486.826 192.98Z" fill="#F54748"/>
<path d="M463.14 376.863L440.895 394.443H490.395L469.35 376.863H463.14Z" fill="#F54748"/>
<path opacity="0.08" d="M463.14 376.863L440.895 394.443H490.395L469.35 376.863H463.14Z" fill="black"/>
<path d="M463.905 158.737C463.879 162.687 464.384 166.621 465.405 170.438C465.715 171.324 466.361 172.053 467.203 172.467C468.044 172.88 469.015 172.946 469.905 172.648C471.361 172.234 472.667 171.408 473.667 170.27C474.668 169.131 475.319 167.727 475.545 166.227L477.15 159.865C477.334 158.555 477.111 157.221 476.509 156.044C475.907 154.868 474.958 153.907 473.789 153.293C469.65 150.751 463.695 154.405 463.905 158.737Z" fill="#F87E7F"/>
<path d="M476.94 161.007L482.475 183.641L469.83 185.807L470.881 168.466L476.94 161.007Z" fill="#F87E7F"/>
<path opacity="0.31" d="M470.49 172.257C472.047 171.727 473.413 170.748 474.42 169.444C474.42 169.444 474.585 173.7 470.279 178.287L470.49 172.257Z" fill="#CE8172"/>
<path d="M480 180.919C471.289 180.588 462.663 182.763 455.145 187.186C447.625 191.609 441.526 198.097 437.565 205.884C435.007 211.098 433.176 216.638 432.119 222.352C425.22 258.13 444.899 290.253 444.899 290.253L485.49 290.599C485.49 290.599 539.16 186.964 480 180.919Z" fill="#921616"/>
<path d="M485.49 290.599C485.49 290.599 484.936 313.879 469.215 315.894C453.495 317.91 417.51 305.758 413.011 325.414C408.51 345.07 417.51 376.321 417.51 376.321L406.501 379.404C406.501 379.404 381.886 332.151 396.376 309.743C410.866 287.335 444.901 290.192 444.901 290.192L485.49 290.599Z" fill="#24285B"/>
<path opacity="0.08" d="M489.915 206.741C489.915 206.741 500.205 235.571 482.415 251.226C464.624 266.882 454.499 268.822 463.499 290.598L444.899 290.253C444.899 290.253 435.18 272.507 433.215 259.92C431.25 247.331 489.915 206.741 489.915 206.741Z" fill="black"/>
<path d="M202.53 293.802H192.45V394.954H202.53V293.802Z" fill="#A5A5A5"/>
<path d="M411.121 293.802H401.04V394.954H411.121V293.802Z" fill="#A5A5A5"/>
<path d="M420.435 277.966H182.295V304.6H420.435V277.966Z" fill="#E6E6E6"/>
<path d="M327.855 278.628L315.03 230.698L321.27 229.36L333.36 271.318L368.354 274.326V278.628H327.855Z" fill="#F54748"/>
<path d="M186.51 222.412C186.51 222.412 205.74 236.879 213.974 257.197C215.021 259.708 215.434 262.439 215.176 265.147C214.917 267.855 213.997 270.458 212.495 272.724C210.995 274.991 208.958 276.852 206.569 278.141C204.179 279.43 201.509 280.11 198.795 280.116L176.295 280.267L186.51 222.412Z" fill="#F87E7F"/>
<path d="M164.115 202.876L162.374 212.982L153.285 213.644L158.82 197.477L164.115 202.876Z" fill="#F87E7F"/>
<path d="M160.934 187.988C161.722 187.347 162.658 186.917 163.655 186.737C164.654 186.557 165.681 186.634 166.64 186.96C167.6 187.287 168.463 187.851 169.146 188.601C169.83 189.352 170.313 190.264 170.55 191.25C171.765 195.883 172.62 202.651 167.264 203.282C159.06 204.125 157.62 193.522 157.62 193.522C158.153 191.389 159.306 189.462 160.934 187.988Z" fill="#F87E7F"/>
<path d="M162.51 195.507C162.51 195.507 161.67 193.387 159.989 194.845C158.31 196.303 160.545 198.65 161.864 198.168C163.185 197.688 162.51 195.507 162.51 195.507Z" fill="#F87E7F"/>
<path d="M129.135 218.546C129.135 218.546 151.005 206.381 170.46 213.659C205.89 226.893 203.94 250.715 179.07 318.932L146.446 319.113L129.135 218.546Z" fill="#921616"/>
<path opacity="0.08" d="M162.6 211.704C162.6 211.704 160.485 216.892 164.099 232.006C167.715 247.12 186.51 297.772 186.51 297.772L179.009 318.962H167.145L130.71 217.75C130.71 217.75 147.209 209.162 162.6 211.704Z" fill="black"/>
<path d="M151.23 207.749C152.55 206.029 153.43 204.012 153.793 201.873C154.157 199.734 153.992 197.537 153.314 195.477C152.693 193.504 152.611 191.399 153.078 189.383C153.545 187.367 154.544 185.514 155.969 184.017C163.89 174.603 175.215 181.251 171.464 186.604C167.714 191.958 165.659 194.394 165.659 194.394C165.659 194.394 179.34 208.802 172.2 217.6C165.855 225.42 139.934 222.126 151.23 207.749Z" fill="#24285B"/>
<path d="M99.2247 349.281L116.325 383.825L121.89 382.728L111.255 343.311L99.2247 349.281Z" fill="#F87E7F"/>
<path d="M115.875 382.653C115.875 382.653 114.72 387.66 110.985 389.209C107.25 390.759 109.155 396.202 114.795 392.879C116.546 391.847 118.212 390.674 119.775 389.375C121.234 388.212 122.972 387.454 124.815 387.179C125.168 387.1 125.488 386.913 125.73 386.643C125.972 386.373 126.124 386.035 126.165 385.675C126.915 382.908 120.675 380.336 120.675 380.336L115.875 382.653Z" fill="#921616"/>
<path d="M123.48 349.281L140.58 383.825L146.145 382.728L135.51 343.311L123.48 349.281Z" fill="#F87E7F"/>
<path d="M140.13 382.653C140.13 382.653 138.991 387.66 135.24 389.209C131.49 390.759 133.41 396.202 139.05 392.879C140.791 391.845 142.446 390.673 144 389.375C145.459 388.212 147.197 387.454 149.04 387.179C149.395 387.099 149.714 386.912 149.958 386.643C150.203 386.373 150.358 386.036 150.405 385.675C151.14 382.908 144.901 380.336 144.901 380.336L140.13 382.653Z" fill="#921616"/>
<path d="M109.05 307.698C109.05 307.698 83.5498 316.857 86.8948 333.475C90.2397 350.093 102.27 376.215 102.27 376.215L154.11 373.057C154.11 373.057 141.69 327.43 168.314 326.166L171.84 316.977L109.05 307.698Z" fill="#24285B"/>
<path opacity="0.58" d="M244.035 263.964C244.035 263.964 233.055 260.956 230.67 250.715C230.67 250.715 247.681 247.271 248.16 264.866L244.035 263.964Z" fill="#921616"/>
<path opacity="0.73" d="M245.37 262.882C245.37 262.882 237.705 250.715 244.455 239.36C244.455 239.36 257.385 247.588 251.64 262.896L245.37 262.882Z" fill="#921616"/>
<path d="M247.35 262.882C247.35 262.882 251.4 250.038 263.655 247.617C263.655 247.617 265.95 255.949 255.721 262.911L247.35 262.882Z" fill="#921616"/>
<path d="M239.385 262.596L241.62 277.86L255.63 277.921L257.699 262.671L239.385 262.596Z" fill="#24285B"/>
<path d="M156.391 326.166H150.18V379.87H156.391V326.166Z" fill="#F54748"/>
<path opacity="0.46" d="M156.391 326.166H150.18V379.87H156.391V326.166Z" fill="white"/>
<path d="M150.78 379.87L128.535 397.451H178.035L156.991 379.87H150.78Z" fill="#F54748"/>
<path opacity="0.08" d="M150.78 379.87L128.535 397.451H178.035L156.991 379.87H150.78Z" fill="black"/>
<path d="M167.881 316.976C167.881 316.976 174.585 223.615 134.881 216.411C95.1753 209.207 81.9303 243.481 105.165 316.976H167.881Z" fill="#F54748"/>
<path d="M105.12 316.976C105.12 316.976 106.965 329.008 112.965 333.294C118.965 337.58 188.685 346.183 193.56 334.889C197.205 326.451 185.685 317.864 167.881 316.976H105.12Z" fill="#F54748"/>
<path d="M466.574 159.985C466.574 159.985 466.17 173.805 474.87 171.685C483.57 169.565 478.83 158.766 478.83 158.766C478.83 158.766 478.515 149.623 471.93 148.661C465.345 147.698 456 148.074 456.255 151.894C456.51 155.714 459.165 162.526 466.574 159.985Z" fill="#24285B"/>
<path d="M465.495 188.543C469.156 187.23 473.153 187.203 476.83 188.468C480.507 189.735 483.646 192.216 485.73 195.507C489.33 201.297 491.49 209.644 485.49 219.72C473.609 239.647 465.734 288.463 366.36 277.966V265.228C366.36 265.228 431.43 260.716 440.895 235.556C448.875 214.306 448.185 194.649 465.495 188.543Z" fill="#921616"/>
<path opacity="0.46" d="M465.495 188.543C469.156 187.23 473.153 187.203 476.83 188.468C480.507 189.735 483.646 192.216 485.73 195.507C489.33 201.297 491.49 209.644 485.49 219.72C473.609 239.647 465.734 288.463 366.36 277.966V265.228C366.36 265.228 431.43 260.716 440.895 235.556C448.875 214.306 448.185 194.649 465.495 188.543Z" fill="white"/>
<path d="M366.36 270.101C366.36 270.101 347.609 267.784 350.235 277.966H366.36V270.101Z" fill="#F87E7F"/>
<path d="M401.881 198.425C401.881 198.425 393.631 186.153 386.97 192.95C380.31 199.749 396.481 202.455 396.481 202.455L401.881 198.425Z" fill="#F87E7F"/>
<path d="M240.285 119.274C241.02 119.274 241.246 119.53 241.246 120.267V121.771C242.519 121.905 243.733 122.384 244.756 123.158C245.779 123.932 246.572 124.97 247.05 126.162C247.425 126.929 247.26 127.335 246.42 127.666L244.919 128.373C244.185 128.719 243.84 128.553 243.42 127.801C243.095 127.013 242.526 126.35 241.797 125.912C241.067 125.473 240.216 125.281 239.37 125.365C236.685 125.365 235.455 126.147 235.455 127.952C235.517 128.506 235.769 129.021 236.169 129.408C236.569 129.795 237.091 130.03 237.646 130.072C238.391 130.244 239.148 130.36 239.91 130.418C241.342 130.49 242.757 130.769 244.11 131.245C244.805 131.485 245.447 131.858 246 132.343C246.569 132.942 247.012 133.651 247.301 134.426C247.591 135.202 247.719 136.028 247.681 136.855C247.681 140.299 245.37 142.645 241.305 143.246V144.901C241.305 145.623 241.081 145.878 240.345 145.878H238.499C237.765 145.878 237.51 145.623 237.51 144.901V143.201C236.097 143.107 234.742 142.594 233.62 141.726C232.498 140.859 231.659 139.676 231.209 138.329C231.134 138.186 231.094 138.026 231.09 137.863C231.087 137.702 231.122 137.541 231.192 137.395C231.262 137.248 231.365 137.121 231.494 137.021C231.621 136.923 231.77 136.855 231.93 136.825L233.43 136.253C234.226 135.982 234.57 136.163 234.93 136.96C235.247 137.814 235.836 138.537 236.608 139.019C237.379 139.5 238.286 139.712 239.191 139.622C242.101 139.622 243.54 138.705 243.54 136.825C243.566 136.394 243.447 135.967 243.203 135.613C242.957 135.258 242.601 134.997 242.191 134.87C241.185 134.514 240.134 134.312 239.07 134.268C237.621 134.181 236.195 133.872 234.84 133.351C234.169 133.119 233.548 132.762 233.009 132.298C232.442 131.74 231.997 131.069 231.702 130.328C231.408 129.588 231.271 128.794 231.299 127.997C231.299 124.583 233.446 122.297 237.481 121.771V120.312C237.481 119.575 237.736 119.319 238.47 119.319L240.285 119.274Z" fill="#A5A5A5"/>
<path opacity="0.35" d="M269.25 187.551H211.485V213.554H269.25V187.551Z" fill="#A5A5A5"/>
<path d="M273.36 155.804C273.36 155.804 264.675 142.269 259.86 146.029C255.046 149.788 266.235 162.421 266.235 162.421L273.36 155.804Z" fill="#F87E7F"/>
<path d="M477.75 31.7324H402.901V87.2263H477.75V31.7324Z" fill="#F54748"/>
<path d="M429.374 47.7791V72.2776L456.255 58.3064L429.374 47.7791Z" fill="white"/>
<path d="M187.305 68.7884C190.619 68.7884 193.305 66.0951 193.305 62.7728C193.305 59.4505 190.619 56.7572 187.305 56.7572C183.992 56.7572 181.305 59.4505 181.305 62.7728C181.305 66.0951 183.992 68.7884 187.305 68.7884Z" fill="#24285B"/>
<path d="M205.156 68.7884C208.468 68.7884 211.156 66.0951 211.156 62.7728C211.156 59.4505 208.468 56.7572 205.156 56.7572C201.842 56.7572 199.156 59.4505 199.156 62.7728C199.156 66.0951 201.842 68.7884 205.156 68.7884Z" fill="#921616"/>
<path d="M221.969 68.7884C225.283 68.7884 227.969 66.0951 227.969 62.7728C227.969 59.4505 225.283 56.7572 221.969 56.7572C218.656 56.7572 215.969 59.4505 215.969 62.7728C215.969 66.0951 218.656 68.7884 221.969 68.7884Z" fill="#F54748"/>
</svg>
