<?xml version="1.0" encoding="utf-8"?>
<!-- Generator: Adobe Illustrator 25.2.1, SVG Export Plug-In . SVG Version: 6.00 Build 0)  -->
<svg version="1.1" id="Layer_1" xmlns="http://www.w3.org/2000/svg" xmlns:xlink="http://www.w3.org/1999/xlink" x="0px" y="0px"
	 viewBox="0 0 1080 1080" style="enable-background:new 0 0 1080 1080;" xml:space="preserve">
<style type="text/css">
	.st0{fill-rule:evenodd;clip-rule:evenodd;fill:#F54748;}
	.st1{fill:#F7931E;}
	.st2{fill:none;stroke:#F54748;stroke-width:2;stroke-miterlimit:10;stroke-dasharray:12.045,12.045;}
	.st3{fill:#F54748;}
	.st4{fill:none;stroke:#FFFFFF;stroke-width:6;stroke-linecap:round;stroke-linejoin:round;stroke-miterlimit:10;}
	.st5{fill-rule:evenodd;clip-rule:evenodd;fill:none;stroke:#FFFFFF;stroke-width:5.3743;stroke-miterlimit:10;}
	.st6{fill:none;stroke:#FFFFFF;stroke-width:5.3743;stroke-linecap:round;stroke-linejoin:round;stroke-miterlimit:10;}
	.st7{fill-rule:evenodd;clip-rule:evenodd;fill:#F7931E;}
</style>
<g>
	<circle class="st0" cx="-2004.5" cy="620.5" r="459.5"/>
	<image style="overflow:visible;" width="1080" height="1080" xlink:href="hero-pic.png"  transform="matrix(1 0 0 1 -2544.48 0)">
	</image>
</g>
<g>
	<circle class="st0" cx="540" cy="620.5" r="459.5"/>
	<image style="overflow:visible;" width="1080" height="1080" xlink:href="hero-pic.png" >
	</image>
</g>
<g>
	<g>
		<path class="st1" d="M872.3,299.5c5.8-16.1,9.8-32.9,12-49.9c2.2-16.8,2.5-33.8,1-50.7c-0.8-8.4-1.9-16.9-3.7-25.2
			c-1.6-7.8-4-15.5-7.9-22.5c-7.3-13.1-21.7-23.6-37.3-20.8c-12.5,2.2-21.8,13.8-24.2,25.9c-1.3,6.5-0.8,13.1,1.7,19.3
			c2.6,6.4,6.7,12,11.9,16.4c10.9,9.3,25.3,13.5,39.5,12.3c14.6-1.2,28.4-7.2,40-16c12.3-9.3,21.9-21.5,29.3-35
			c7.8-14.1,13.3-29.3,18.4-44.6c1.2-3.7,2.4-7.4,3.6-11.1c0.5-1.5-0.6-3.3-2.1-3.7c-1.6-0.4-3.2,0.5-3.7,2.1
			c-4.6,14.4-9.3,28.9-15.6,42.7c-6.1,13.3-13.8,26.3-24.2,36.7c-9.6,9.6-21.4,17.2-34.5,20.8c-12.4,3.5-26.2,3.1-37.7-2.7
			c-5.6-2.9-10.6-6.7-14.5-11.7c-1.7-2.1-3.4-5-4.5-7.6c-0.6-1.3-1.1-2.9-1.5-4.4c-0.2-0.7-0.3-1.3-0.5-2c-0.2-0.9-0.2-1.1-0.3-1.8
			c-1-10.9,4.3-22.4,13.9-27.6c2.1-1.2,4.8-2.1,7.2-2.4c3.3-0.4,6.5,0,9.7,0.9c6.4,1.9,12,6.1,16.2,11.3c4.6,5.6,7.4,12.6,9.4,19.5
			c2.1,7.4,3.4,15.1,4.4,22.7c2.1,16.1,2.4,32.4,1.1,48.6c-1.3,16.1-4.4,32-9.1,47.4c-1.2,3.8-2.4,7.6-3.8,11.3
			c-0.6,1.5,0.6,3.3,2.1,3.7C870.2,302.1,871.7,301.1,872.3,299.5L872.3,299.5z"/>
	</g>
</g>
<g>
	<ellipse class="st2" cx="1227.4" cy="78.8" rx="37.1" ry="39.6"/>
</g>
<path class="st3" d="M971,49.8l-40.8,30.1c-3.3,2.4-2.7,7.6,1,9.2l13.1,5.7c2.5,1.1,5.2,1,7.6,0c1.8-0.8,3.9,0.1,4.5,2
	c0.8,2.4,2.6,4.5,5.1,5.6l13.1,5.7c3.8,1.6,7.9-1.4,7.5-5.5l-5.7-50.4C976,49.5,973.1,48.2,971,49.8z"/>
<line class="st4" x1="955.4" y1="92.9" x2="960.2" y2="81.8"/>
<g>
	<path class="st0" d="M192.5,224.6l-53.7,31c-13.9,8-31.6,3.3-39.6-10.6l-31-53.7c-8-13.9-3.3-31.6,10.6-39.6l53.7-31
		c13.9-8,31.6-3.3,39.6,10.6l31,53.7C211.1,198.9,206.3,216.6,192.5,224.6z"/>
	<g>
		<circle class="st5" cx="135.6" cy="188.2" r="28.8"/>
		<polyline class="st6" points="147.4,184 134.1,191.7 126.5,178.4 		"/>
	</g>
</g>
<path class="st0" d="M-169-23h-62c-16,0-29-13-29-29v-62c0-16,13-29,29-29h62c16,0,29,13,29,29v62C-140-36-153-23-169-23z"/>
<path class="st0" d="M87.4,422.3l-9.1,9.1c-2.4,2.4-6.2,2.4-8.5,0l-9.1-9.1c-2.4-2.4-2.4-6.2,0-8.5l9.1-9.1c2.4-2.4,6.2-2.4,8.5,0
	l9.1,9.1C89.7,416.1,89.7,420,87.4,422.3z"/>
<path class="st7" d="M38.5,553.7l-6,6c-1.6,1.6-4.1,1.6-5.6,0l-6-6c-1.6-1.6-1.6-4.1,0-5.6l6-6c1.6-1.6,4.1-1.6,5.6,0l6,6
	C40.1,549.6,40.1,552.1,38.5,553.7z"/>
<path class="st0" d="M1024.7,943.5h-12.9c-3.3,0-6-2.7-6-6l0-12.9c0-3.3,2.7-6,6-6h12.9c3.3,0,6,2.7,6,6v12.9
	C1030.8,940.8,1028,943.5,1024.7,943.5z"/>
<path class="st0" d="M780,143.4h-12.9c-3.3,0-6-2.7-6-6v-12.9c0-3.3,2.7-6,6-6H780c3.3,0,6,2.7,6,6v12.9
	C786.1,140.7,783.4,143.4,780,143.4z"/>
<path class="st0" d="M988.5,1036.1h-12.9c-3.3,0-6-2.7-6-6v-12.9c0-3.3,2.7-6,6-6h12.9c3.3,0,6,2.7,6,6v12.9
	C994.5,1033.4,991.8,1036.1,988.5,1036.1z"/>
<path class="st7" d="M897.3,1001.9h-8.5c-2.2,0-4-1.8-4-4v-8.5c0-2.2,1.8-4,4-4h8.5c2.2,0,4,1.8,4,4v8.5
	C901.2,1000.1,899.5,1001.9,897.3,1001.9z"/>
<path class="st7" d="M1010,345.5h-8.5c-2.2,0-4-1.8-4-4V333c0-2.2,1.8-4,4-4h8.5c2.2,0,4,1.8,4,4v8.5
	C1014,343.7,1012.2,345.5,1010,345.5z"/>
<path class="st7" d="M1010,844.9h-8.5c-2.2,0-4-1.8-4-4v-8.5c0-2.2,1.8-4,4-4h8.5c2.2,0,4,1.8,4,4v8.5
	C1014,843.1,1012.2,844.9,1010,844.9z"/>
<g>
	<circle class="st5" cx="-200" cy="-83" r="28.8"/>
	<polyline class="st6" points="-187.7,-80.7 -203,-80.7 -203,-96 	"/>
</g>
</svg>
