<svg width="40" height="50" viewBox="0 0 40 50" fill="none" xmlns="http://www.w3.org/2000/svg">
<path d="M38.3461 13.98L29.4138 8.82767C28.5764 8.35081 27.518 8.62995 27.0295 9.46735C26.5527 10.3048 26.8318 11.3631 27.6692 11.8516L35.7292 16.5039V35.1245L28.9137 39.0673C28.1344 38.4043 27.1458 37.9624 26.0409 37.7995C24.4126 37.5553 22.6797 37.9042 21.1444 38.7881C17.853 40.6955 16.4806 44.522 18.0972 47.325C19.1091 49.0696 21.0398 50.0117 23.1565 50.0117C24.4359 50.0117 25.7734 49.6744 27.0063 48.9533C28.5415 48.0694 29.7162 46.7318 30.3094 45.2082C30.7164 44.1731 30.8211 43.0914 30.6467 42.0912L38.3345 37.6483C38.8695 37.3343 39.2068 36.7644 39.2068 36.1363V15.492C39.2184 14.8756 38.8811 14.2941 38.3461 13.98ZM27.0644 43.9289C26.762 44.7081 26.0991 45.4408 25.2617 45.9177C23.6567 46.8481 21.7609 46.6853 21.1212 45.5571C20.4815 44.4406 21.284 42.7076 22.889 41.7888C23.5636 41.3934 24.3196 41.184 25.0174 41.184C25.1803 41.184 25.3547 41.1957 25.5176 41.2189C25.9246 41.2771 26.6574 41.4864 27.0412 42.1377C27.4133 42.8123 27.2156 43.545 27.0644 43.9289Z" fill="#F54748"/>
<path d="M19.6092 37.8693C20.5746 37.8693 21.3538 37.0901 21.3538 36.1247V26.8202L29.4138 22.168C30.2512 21.6911 30.5304 20.6211 30.0535 19.7837C29.5766 18.9463 28.5066 18.6672 27.6692 19.144L19.6092 23.7963L11.5492 19.144C10.7118 18.6672 9.65341 18.9463 9.16492 19.7837C9.0021 20.0628 8.93231 20.3536 8.93231 20.656C8.93231 21.2608 9.24634 21.8423 9.80461 22.168L17.8646 26.8202V36.1247C17.8646 37.0901 18.6439 37.8693 19.6092 37.8693Z" fill="#F54748"/>
<path d="M11.5492 39.7768L3.48918 35.1245V16.5039L10.2349 12.6077C11.5492 13.9336 13.3287 14.6547 15.1547 14.6547C16.3294 14.6547 17.5157 14.3523 18.5973 13.7358L21.2724 12.189C22.1098 11.7121 22.3889 10.6421 21.9121 9.80469C21.4352 8.96729 20.3652 8.68816 19.5278 9.16501L16.8528 10.7119C15.7711 11.3399 14.4917 11.305 13.4799 10.7351L18.702 7.72281C19.5394 7.24596 19.8186 6.17594 19.3417 5.33854C18.8649 4.50113 17.7948 4.222 16.9574 4.69885L11.7353 7.71118C11.7469 6.54812 12.3633 5.41995 13.445 4.80353L16.12 3.25666C16.9574 2.7798 17.2366 1.70979 16.7597 0.872383C16.2829 0.0349784 15.2128 -0.244156 14.3754 0.232699L11.7004 1.77957C8.92068 3.3846 7.6762 6.62954 8.49035 9.58371L0.872296 13.9801C0.337288 14.2941 0 14.864 0 15.4921V36.1248C0 36.7528 0.337288 37.3227 0.872296 37.6368L9.80461 42.7891C10.0837 42.9519 10.3745 43.0217 10.6769 43.0217C11.2817 43.0217 11.8632 42.7077 12.1889 42.1494C12.6657 41.3237 12.3866 40.2536 11.5492 39.7768Z" fill="#F54748"/>
</svg>
