<svg width="24" height="25" viewBox="0 0 24 25" fill="none" xmlns="http://www.w3.org/2000/svg">
<rect x="0.37585" y="0.409542" width="23.2483" height="23.2483" rx="4.88605" stroke="#EDE2FC" stroke-width="0.751701"/>
<path d="M11.6587 8.17496C9.71282 8.17496 8.14329 9.74484 8.14329 11.6911C8.14329 13.6374 9.71282 15.2073 11.6587 15.2073C13.6045 15.2073 15.1741 13.6374 15.1741 11.6911C15.1741 9.74484 13.6045 8.17496 11.6587 8.17496ZM11.6587 13.9771C10.4012 13.9771 9.37322 12.9519 9.37322 11.6911C9.37322 10.4303 10.3982 9.40516 11.6587 9.40516C12.9192 9.40516 13.9441 10.4303 13.9441 11.6911C13.9441 12.9519 12.9161 13.9771 11.6587 13.9771ZM16.1378 8.03113C16.1378 8.4871 15.7707 8.85126 15.3179 8.85126C14.862 8.85126 14.4979 8.48404 14.4979 8.03113C14.4979 7.57822 14.8651 7.21099 15.3179 7.21099C15.7707 7.21099 16.1378 7.57822 16.1378 8.03113ZM18.4661 8.8635C18.4141 7.76489 18.1632 6.79175 17.3586 5.98997C16.557 5.1882 15.584 4.93727 14.4857 4.88218C13.3537 4.81792 9.96064 4.81792 8.82862 4.88218C7.73332 4.93421 6.76039 5.18514 5.95574 5.98691C5.15108 6.78869 4.90326 7.76183 4.84819 8.86044C4.78394 9.99272 4.78394 13.3865 4.84819 14.5188C4.9002 15.6174 5.15108 16.5905 5.95574 17.3923C6.76039 18.1941 7.73026 18.445 8.82862 18.5001C9.96064 18.5643 13.3537 18.5643 14.4857 18.5001C15.584 18.448 16.557 18.1971 17.3586 17.3923C18.1602 16.5905 18.411 15.6174 18.4661 14.5188C18.5304 13.3865 18.5304 9.99578 18.4661 8.8635ZM17.0037 15.7337C16.765 16.3335 16.303 16.7955 15.7003 17.0373C14.7977 17.3953 12.6561 17.3127 11.6587 17.3127C10.6613 17.3127 8.51655 17.3923 7.61705 17.0373C7.01739 16.7986 6.5554 16.3365 6.3137 15.7337C5.95574 14.8309 6.03834 12.6888 6.03834 11.6911C6.03834 10.6935 5.9588 8.5483 6.3137 7.6486C6.55234 7.0488 7.01433 6.58671 7.61705 6.34496C8.51961 5.98691 10.6613 6.06954 11.6587 6.06954C12.6561 6.06954 14.8008 5.98997 15.7003 6.34496C16.3 6.58365 16.762 7.04574 17.0037 7.6486C17.3616 8.55136 17.279 10.6935 17.279 11.6911C17.279 12.6888 17.3616 14.834 17.0037 15.7337Z" fill="#EDE2FC"/>
</svg>
