<svg width="24" height="25" viewBox="0 0 24 25" fill="none" xmlns="http://www.w3.org/2000/svg">
<rect x="0.37585" y="0.409542" width="23.2483" height="23.2483" rx="4.88605" stroke="#EDE2FC" stroke-width="0.751701"/>
<path d="M8.66987 18.5483H5.82654V9.39194H8.66987V18.5483ZM7.24668 8.14294C6.33747 8.14294 5.60001 7.38986 5.60001 6.48065C5.60001 6.04393 5.77349 5.62509 6.0823 5.31628C6.39111 5.00747 6.80995 4.83398 7.24668 4.83398C7.6834 4.83398 8.10224 5.00747 8.41105 5.31628C8.71986 5.62509 8.89335 6.04393 8.89335 6.48065C8.89335 7.38986 8.15557 8.14294 7.24668 8.14294ZM19.3115 18.5483H16.4743V14.091C16.4743 13.0288 16.4529 11.6665 14.996 11.6665C13.5177 11.6665 13.2912 12.8206 13.2912 14.0145V18.5483H10.4509V9.39194H13.1779V10.641H13.2177C13.5973 9.92155 14.5246 9.16235 15.908 9.16235C18.7856 9.16235 19.3146 11.0573 19.3146 13.5186V18.5483H19.3115Z" fill="#EDE2FC"/>
</svg>
