<svg width="155" height="50" viewBox="0 0 155 50" fill="none" xmlns="http://www.w3.org/2000/svg">
<g clip-path="url(#clip0_4_30)">
<path d="M58.281 16.6551V19.493H50.9653V23.994H56.5713V26.7854H50.9653V34.1941H47.4529V16.6551H58.281Z" fill="#333333"/>
<path d="M63.3286 33.5194C62.2586 32.9263 61.4096 32.0889 60.8048 30.9956C60.1884 29.9023 59.886 28.6462 59.886 27.2273C59.886 25.8083 60.2 24.5522 60.8281 23.459C61.4561 22.3657 62.3168 21.5283 63.3984 20.9351C64.4917 20.3419 65.7013 20.0396 67.0388 20.0396C68.3763 20.0396 69.5975 20.3419 70.6792 20.9351C71.7725 21.5283 72.6215 22.3773 73.2495 23.459C73.8776 24.5522 74.1916 25.8083 74.1916 27.2273C74.1916 28.6462 73.866 29.9023 73.2263 30.9956C72.5866 32.0889 71.7143 32.9263 70.6094 33.5194C69.5161 34.1126 68.2833 34.415 66.9225 34.415C65.6082 34.415 64.3987 34.1242 63.3286 33.5194ZM68.7485 30.8909C69.3068 30.5769 69.7604 30.1117 70.0977 29.4952C70.4349 28.8788 70.5978 28.1228 70.5978 27.2389C70.5978 25.913 70.2489 24.9011 69.551 24.18C68.8532 23.4706 68.0041 23.11 67.0039 23.11C66.0037 23.11 65.1547 23.4706 64.4801 24.18C63.8055 24.8895 63.4566 25.913 63.4566 27.2389C63.4566 28.5648 63.7822 29.5767 64.4452 30.2861C65.1081 30.9956 65.9455 31.3561 66.9458 31.3561C67.5854 31.3561 68.1902 31.1933 68.7485 30.8909Z" fill="#333333"/>
<path d="M79.3673 33.5194C78.2973 32.9263 77.4482 32.0889 76.8434 30.9956C76.227 29.9023 75.9246 28.6462 75.9246 27.2273C75.9246 25.8083 76.2387 24.5522 76.8667 23.459C77.4948 22.3657 78.3554 21.5283 79.4371 20.9351C80.5303 20.3419 81.7399 20.0396 83.0774 20.0396C84.415 20.0396 85.6362 20.3419 86.7178 20.9351C87.8111 21.5283 88.6601 22.3773 89.2882 23.459C89.9163 24.5522 90.2303 25.8083 90.2303 27.2273C90.2303 28.6462 89.9046 29.9023 89.2649 30.9956C88.6253 32.0889 87.753 32.9263 86.6481 33.5194C85.5548 34.1126 84.3219 34.415 82.9611 34.415C81.6469 34.415 80.4373 34.1242 79.3673 33.5194ZM84.7755 30.8909C85.3338 30.5769 85.7874 30.1117 86.1247 29.4952C86.462 28.8788 86.6248 28.1228 86.6248 27.2389C86.6248 25.913 86.2759 24.9011 85.578 24.18C84.8802 23.4706 84.0312 23.11 83.0309 23.11C82.0307 23.11 81.1817 23.4706 80.5071 24.18C79.8325 24.8895 79.4836 25.913 79.4836 27.2389C79.4836 28.5648 79.8093 29.5767 80.4722 30.2861C81.1351 30.9956 81.9725 31.3561 82.9728 31.3561C83.6241 31.3561 84.2173 31.1933 84.7755 30.8909Z" fill="#333333"/>
<path d="M92.7658 23.4357C93.324 22.3424 94.0916 21.505 95.0686 20.9235C96.0456 20.342 97.1156 20.0396 98.3135 20.0396C99.2207 20.0396 100.081 20.2373 100.907 20.6327C101.733 21.0282 102.384 21.5516 102.873 22.2029V15.5967H106.443V34.194H102.873V32.1354C102.442 32.8216 101.826 33.3799 101.035 33.7986C100.244 34.2173 99.337 34.4266 98.3019 34.4266C97.1272 34.4266 96.0572 34.1243 95.0802 33.5195C94.1033 32.9147 93.3473 32.0656 92.7774 30.9724C92.2191 29.8791 91.94 28.6113 91.94 27.1924C91.9284 25.7735 92.2075 24.529 92.7658 23.4357ZM102.384 25.0291C102.047 24.4127 101.593 23.9475 101.023 23.6218C100.454 23.2961 99.8372 23.1333 99.1858 23.1333C98.5345 23.1333 97.9297 23.2961 97.3715 23.6102C96.8132 23.9242 96.3712 24.3894 96.0223 25.0058C95.6734 25.6223 95.5106 26.3434 95.5106 27.1808C95.5106 28.0182 95.685 28.7509 96.0223 29.379C96.3712 30.007 96.8132 30.4839 97.3831 30.8212C97.9414 31.1584 98.5462 31.3213 99.1742 31.3213C99.8255 31.3213 100.442 31.1584 101.012 30.8328C101.582 30.5071 102.035 30.0419 102.373 29.4255C102.71 28.8091 102.873 28.0763 102.873 27.2273C102.884 26.3783 102.722 25.6455 102.384 25.0291Z" fill="#333333"/>
<path d="M115.259 20.6676C116.05 20.2489 116.969 20.0396 117.981 20.0396C119.167 20.0396 120.249 20.3303 121.214 20.9235C122.18 21.505 122.936 22.3424 123.505 23.4241C124.064 24.5057 124.343 25.7618 124.343 27.1808C124.343 28.5997 124.064 29.8674 123.505 30.9607C122.947 32.054 122.18 32.903 121.214 33.5078C120.249 34.1126 119.179 34.415 117.981 34.415C116.946 34.415 116.039 34.2057 115.259 33.7986C114.48 33.3915 113.852 32.8565 113.387 32.2052V34.194H109.874V15.5967H113.387V22.3075C113.84 21.633 114.468 21.0863 115.259 20.6676ZM120.237 25.0058C119.888 24.3894 119.446 23.9242 118.876 23.6102C118.318 23.2961 117.713 23.1333 117.05 23.1333C116.411 23.1333 115.818 23.2961 115.259 23.6218C114.701 23.9475 114.247 24.4243 113.899 25.0407C113.55 25.6572 113.387 26.3899 113.387 27.2273C113.387 28.0647 113.561 28.7974 113.899 29.4138C114.247 30.0303 114.689 30.5071 115.259 30.8328C115.818 31.1584 116.422 31.3213 117.05 31.3213C117.702 31.3213 118.307 31.1584 118.876 30.8212C119.435 30.4839 119.888 30.007 120.237 29.3906C120.586 28.7742 120.749 28.0298 120.749 27.1808C120.749 26.3434 120.575 25.6223 120.237 25.0058Z" fill="#F54748"/>
<path d="M129.472 33.5194C128.402 32.9263 127.553 32.0889 126.948 30.9956C126.332 29.9023 126.029 28.6462 126.029 27.2273C126.029 25.8083 126.343 24.5522 126.971 23.459C127.599 22.3657 128.46 21.5283 129.542 20.9351C130.635 20.3419 131.845 20.0396 133.182 20.0396C134.52 20.0396 135.741 20.3419 136.823 20.9351C137.916 21.5283 138.765 22.3773 139.393 23.459C140.021 24.5522 140.335 25.8083 140.335 27.2273C140.335 28.6462 140.009 29.9023 139.37 30.9956C138.73 32.0889 137.858 32.9263 136.753 33.5194C135.659 34.1126 134.427 34.415 133.066 34.415C131.752 34.415 130.542 34.1242 129.472 33.5194ZM134.88 30.8909C135.438 30.5769 135.892 30.1117 136.229 29.4952C136.567 28.8788 136.729 28.1228 136.729 27.2389C136.729 25.913 136.381 24.9011 135.683 24.18C134.985 23.4706 134.136 23.11 133.136 23.11C132.135 23.11 131.286 23.4706 130.612 24.18C129.937 24.8895 129.588 25.913 129.588 27.2389C129.588 28.5648 129.914 29.5767 130.577 30.2861C131.24 30.9956 132.077 31.3561 133.077 31.3561C133.729 31.3561 134.322 31.1933 134.88 30.8909Z" fill="#F54748"/>
<path d="M150.628 34.194L147.767 29.8674L145.231 34.194H141.463L146.011 27.204L141.417 20.2722H145.383L148.221 24.5639L150.779 20.2722H154.548L149.977 27.204L154.606 34.194H150.628Z" fill="#F54748"/>
<path d="M38.3461 13.98L29.4138 8.82767C28.5764 8.35081 27.518 8.62995 27.0295 9.46735C26.5527 10.3048 26.8318 11.3631 27.6692 11.8516L35.7292 16.5039V35.1245L28.9137 39.0673C28.1344 38.4043 27.1458 37.9623 26.0409 37.7995C24.4126 37.5553 22.6797 37.9042 21.1444 38.7881C17.853 40.6955 16.4806 44.522 18.0972 47.325C19.1091 49.0696 21.0398 50.0117 23.1565 50.0117C24.4359 50.0117 25.7734 49.6744 27.0063 48.9533C28.5415 48.0694 29.7162 46.7318 30.3094 45.2082C30.7164 44.1731 30.8211 43.0915 30.6467 42.0912L38.3345 37.6483C38.8695 37.3343 39.2068 36.7644 39.2068 36.1363V15.492C39.2184 14.8756 38.8811 14.2941 38.3461 13.98ZM27.0644 43.9289C26.762 44.7081 26.0991 45.4408 25.2617 45.9177C23.6567 46.8481 21.7609 46.6853 21.1212 45.5571C20.4815 44.4406 21.284 42.7076 22.889 41.7888C23.5636 41.3934 24.3196 41.184 25.0174 41.184C25.1803 41.184 25.3547 41.1957 25.5176 41.2189C25.9246 41.2771 26.6574 41.4864 27.0412 42.1377C27.4133 42.8123 27.2156 43.545 27.0644 43.9289Z" fill="#F54748"/>
<path d="M19.6092 37.8693C20.5746 37.8693 21.3538 37.0901 21.3538 36.1247V26.8202L29.4138 22.168C30.2512 21.6911 30.5304 20.6211 30.0535 19.7837C29.5766 18.9463 28.5066 18.6672 27.6692 19.144L19.6092 23.7963L11.5492 19.144C10.7118 18.6672 9.65341 18.9463 9.16492 19.7837C9.0021 20.0628 8.93231 20.3536 8.93231 20.656C8.93231 21.2608 9.24634 21.8423 9.80461 22.168L17.8646 26.8202V36.1247C17.8646 37.0901 18.6439 37.8693 19.6092 37.8693Z" fill="#F54748"/>
<path d="M11.5492 39.7768L3.48918 35.1245V16.5039L10.2349 12.6077C11.5492 13.9336 13.3287 14.6547 15.1547 14.6547C16.3294 14.6547 17.5157 14.3523 18.5973 13.7358L21.2724 12.189C22.1098 11.7121 22.3889 10.6421 21.9121 9.80469C21.4352 8.96729 20.3652 8.68815 19.5278 9.16501L16.8528 10.7119C15.7711 11.3399 14.4917 11.305 13.4799 10.7351L18.702 7.72281C19.5394 7.24596 19.8186 6.17594 19.3417 5.33854C18.8649 4.50113 17.7948 4.222 16.9574 4.69885L11.7353 7.71118C11.7469 6.54812 12.3633 5.41995 13.445 4.80353L16.12 3.25666C16.9574 2.7798 17.2366 1.70979 16.7597 0.872383C16.2829 0.0349784 15.2128 -0.244156 14.3754 0.232699L11.7004 1.77957C8.92068 3.3846 7.6762 6.62954 8.49035 9.58371L0.872296 13.9801C0.337288 14.2941 0 14.864 0 15.4921V36.1248C0 36.7528 0.337288 37.3227 0.872296 37.6368L9.80461 42.7891C10.0837 42.9519 10.3745 43.0217 10.6769 43.0217C11.2817 43.0217 11.8632 42.7077 12.1889 42.1494C12.6657 41.3237 12.3866 40.2536 11.5492 39.7768Z" fill="#F54748"/>
</g>
<defs>
<clipPath id="clip0_4_30">
<rect width="154.594" height="50" fill="white"/>
</clipPath>
</defs>
</svg>
