<svg width="155" height="51" viewBox="0 0 155 51" fill="none" xmlns="http://www.w3.org/2000/svg">
<path d="M58.281 16.6545V19.4924H50.9653V23.9935H56.5713V26.7848H50.9653V34.1935H47.4529V16.6545H58.281Z" fill="#FDDADA"/>
<path d="M63.3286 33.5189C62.2586 32.9258 61.4096 32.0884 60.8048 30.9951C60.1884 29.9018 59.886 28.6457 59.886 27.2268C59.886 25.8078 60.2 24.5517 60.8281 23.4585C61.4561 22.3652 62.3168 21.5278 63.3984 20.9346C64.4917 20.3415 65.7013 20.0391 67.0388 20.0391C68.3763 20.0391 69.5975 20.3415 70.6792 20.9346C71.7725 21.5278 72.6215 22.3768 73.2495 23.4585C73.8776 24.5517 74.1916 25.8078 74.1916 27.2268C74.1916 28.6457 73.866 29.9018 73.2263 30.9951C72.5866 32.0884 71.7143 32.9258 70.6094 33.5189C69.5161 34.1121 68.2833 34.4145 66.9225 34.4145C65.6082 34.4145 64.3987 34.1237 63.3286 33.5189ZM68.7485 30.8904C69.3068 30.5764 69.7604 30.1112 70.0977 29.4948C70.4349 28.8783 70.5978 28.1223 70.5978 27.2384C70.5978 25.9125 70.2489 24.9007 69.551 24.1796C68.8532 23.4701 68.0041 23.1095 67.0039 23.1095C66.0037 23.1095 65.1547 23.4701 64.4801 24.1796C63.8055 24.889 63.4566 25.9125 63.4566 27.2384C63.4566 28.5643 63.7822 29.5762 64.4452 30.2856C65.1081 30.9951 65.9455 31.3557 66.9458 31.3557C67.5854 31.3557 68.1902 31.1928 68.7485 30.8904Z" fill="#FDDADA"/>
<path d="M79.3673 33.5189C78.2973 32.9258 77.4482 32.0884 76.8434 30.9951C76.227 29.9018 75.9246 28.6457 75.9246 27.2268C75.9246 25.8078 76.2387 24.5517 76.8667 23.4585C77.4948 22.3652 78.3554 21.5278 79.4371 20.9346C80.5303 20.3415 81.7399 20.0391 83.0774 20.0391C84.415 20.0391 85.6362 20.3415 86.7178 20.9346C87.8111 21.5278 88.6601 22.3768 89.2882 23.4585C89.9163 24.5517 90.2303 25.8078 90.2303 27.2268C90.2303 28.6457 89.9046 29.9018 89.2649 30.9951C88.6253 32.0884 87.753 32.9258 86.6481 33.5189C85.5548 34.1121 84.3219 34.4145 82.9611 34.4145C81.6469 34.4145 80.4373 34.1237 79.3673 33.5189ZM84.7755 30.8904C85.3338 30.5764 85.7874 30.1112 86.1247 29.4948C86.462 28.8783 86.6248 28.1223 86.6248 27.2384C86.6248 25.9125 86.2759 24.9007 85.578 24.1796C84.8802 23.4701 84.0312 23.1095 83.0309 23.1095C82.0307 23.1095 81.1817 23.4701 80.5071 24.1796C79.8325 24.889 79.4836 25.9125 79.4836 27.2384C79.4836 28.5643 79.8093 29.5762 80.4722 30.2856C81.1351 30.9951 81.9725 31.3557 82.9728 31.3557C83.6241 31.3557 84.2173 31.1928 84.7755 30.8904Z" fill="#FDDADA"/>
<path d="M92.7658 23.4352C93.324 22.3419 94.0916 21.5045 95.0686 20.923C96.0456 20.3415 97.1156 20.0391 98.3135 20.0391C99.2207 20.0391 100.081 20.2368 100.907 20.6322C101.733 21.0277 102.384 21.5511 102.873 22.2024V15.5962H106.443V34.1935H102.873V32.1349C102.442 32.8211 101.826 33.3794 101.035 33.7981C100.244 34.2168 99.337 34.4262 98.3019 34.4262C97.1272 34.4262 96.0572 34.1238 95.0802 33.519C94.1033 32.9142 93.3473 32.0651 92.7774 30.9719C92.2191 29.8786 91.94 28.6108 91.94 27.1919C91.9284 25.773 92.2075 24.5285 92.7658 23.4352ZM102.384 25.0286C102.047 24.4122 101.593 23.947 101.023 23.6213C100.454 23.2957 99.8372 23.1328 99.1858 23.1328C98.5345 23.1328 97.9297 23.2957 97.3715 23.6097C96.8132 23.9237 96.3712 24.3889 96.0223 25.0054C95.6734 25.6218 95.5106 26.3429 95.5106 27.1803C95.5106 28.0177 95.685 28.7504 96.0223 29.3785C96.3712 30.0065 96.8132 30.4834 97.3831 30.8207C97.9414 31.158 98.5462 31.3208 99.1742 31.3208C99.8255 31.3208 100.442 31.158 101.012 30.8323C101.582 30.5066 102.035 30.0414 102.373 29.425C102.71 28.8086 102.873 28.0758 102.873 27.2268C102.884 26.3778 102.722 25.645 102.384 25.0286Z" fill="#FDDADA"/>
<path d="M115.259 20.6671C116.05 20.2484 116.969 20.0391 117.981 20.0391C119.167 20.0391 120.249 20.3298 121.214 20.923C122.18 21.5045 122.936 22.3419 123.505 23.4236C124.064 24.5052 124.343 25.7613 124.343 27.1803C124.343 28.5992 124.064 29.867 123.505 30.9602C122.947 32.0535 122.18 32.9025 121.214 33.5073C120.249 34.1121 119.179 34.4145 117.981 34.4145C116.946 34.4145 116.039 34.2052 115.259 33.7981C114.48 33.391 113.852 32.856 113.387 32.2047V34.1935H109.874V15.5962H113.387V22.3071C113.84 21.6325 114.468 21.0858 115.259 20.6671ZM120.237 25.0054C119.888 24.3889 119.446 23.9237 118.876 23.6097C118.318 23.2957 117.713 23.1328 117.05 23.1328C116.411 23.1328 115.818 23.2957 115.259 23.6213C114.701 23.947 114.247 24.4238 113.899 25.0402C113.55 25.6567 113.387 26.3894 113.387 27.2268C113.387 28.0642 113.561 28.7969 113.899 29.4134C114.247 30.0298 114.689 30.5066 115.259 30.8323C115.818 31.158 116.422 31.3208 117.05 31.3208C117.702 31.3208 118.307 31.158 118.876 30.8207C119.435 30.4834 119.888 30.0065 120.237 29.3901C120.586 28.7737 120.749 28.0293 120.749 27.1803C120.749 26.3429 120.575 25.6218 120.237 25.0054Z" fill="#F54748"/>
<path d="M129.472 33.5189C128.402 32.9258 127.553 32.0884 126.948 30.9951C126.332 29.9018 126.029 28.6457 126.029 27.2268C126.029 25.8078 126.343 24.5517 126.971 23.4585C127.599 22.3652 128.46 21.5278 129.542 20.9346C130.635 20.3415 131.845 20.0391 133.182 20.0391C134.52 20.0391 135.741 20.3415 136.823 20.9346C137.916 21.5278 138.765 22.3768 139.393 23.4585C140.021 24.5517 140.335 25.8078 140.335 27.2268C140.335 28.6457 140.009 29.9018 139.37 30.9951C138.73 32.0884 137.858 32.9258 136.753 33.5189C135.659 34.1121 134.427 34.4145 133.066 34.4145C131.752 34.4145 130.542 34.1237 129.472 33.5189ZM134.88 30.8904C135.438 30.5764 135.892 30.1112 136.229 29.4948C136.567 28.8783 136.729 28.1223 136.729 27.2384C136.729 25.9125 136.381 24.9007 135.683 24.1796C134.985 23.4701 134.136 23.1095 133.136 23.1095C132.135 23.1095 131.286 23.4701 130.612 24.1796C129.937 24.889 129.588 25.9125 129.588 27.2384C129.588 28.5643 129.914 29.5762 130.577 30.2856C131.24 30.9951 132.077 31.3557 133.077 31.3557C133.729 31.3557 134.322 31.1928 134.88 30.8904Z" fill="#F54748"/>
<path d="M150.628 34.1936L147.767 29.867L145.231 34.1936H141.463L146.011 27.2036L141.417 20.2717H145.383L148.221 24.5634L150.779 20.2717H154.548L149.977 27.2036L154.606 34.1936H150.628Z" fill="#F54748"/>
<path d="M38.3461 13.9795L29.4138 8.82718C28.5764 8.35033 27.518 8.62946 27.0295 9.46686C26.5527 10.3043 26.8318 11.3627 27.6692 11.8511L35.7292 16.5034V35.124L28.9137 39.0668C28.1344 38.4038 27.1458 37.9619 26.0409 37.799C24.4126 37.5548 22.6797 37.9037 21.1444 38.7876C17.853 40.6951 16.4806 44.5215 18.0972 47.3245C19.1091 49.0691 21.0398 50.0112 23.1565 50.0112C24.4359 50.0112 25.7734 49.6739 27.0063 48.9528C28.5415 48.0689 29.7162 46.7313 30.3094 45.2077C30.7164 44.1726 30.8211 43.091 30.6467 42.0907L38.3345 37.6478C38.8695 37.3338 39.2068 36.7639 39.2068 36.1359V15.4915C39.2184 14.8751 38.8811 14.2936 38.3461 13.9795ZM27.0644 43.9284C26.762 44.7076 26.0991 45.4403 25.2617 45.9172C23.6567 46.8476 21.7609 46.6848 21.1212 45.5567C20.4815 44.4401 21.284 42.7071 22.889 41.7883C23.5636 41.3929 24.3196 41.1835 25.0174 41.1835C25.1803 41.1835 25.3547 41.1952 25.5176 41.2184C25.9246 41.2766 26.6574 41.4859 27.0412 42.1373C27.4133 42.8118 27.2156 43.5446 27.0644 43.9284Z" fill="#F54748"/>
<path d="M19.6092 37.8689C20.5746 37.8689 21.3538 37.0896 21.3538 36.1243V26.8198L29.4138 22.1675C30.2512 21.6907 30.5304 20.6207 30.0535 19.7833C29.5766 18.9459 28.5066 18.6667 27.6692 19.1436L19.6092 23.7958L11.5492 19.1436C10.7118 18.6667 9.65341 18.9459 9.16492 19.7833C9.0021 20.0624 8.93231 20.3532 8.93231 20.6556C8.93231 21.2604 9.24634 21.8419 9.80461 22.1675L17.8646 26.8198V36.1243C17.8646 37.0896 18.6439 37.8689 19.6092 37.8689Z" fill="#F54748"/>
<path d="M11.5492 39.7763L3.48918 35.1241V16.5034L10.2349 12.6072C11.5492 13.9331 13.3287 14.6542 15.1547 14.6542C16.3294 14.6542 17.5157 14.3518 18.5973 13.7354L21.2724 12.1885C22.1098 11.7116 22.3889 10.6416 21.9121 9.80421C21.4352 8.9668 20.3652 8.68767 19.5278 9.16452L16.8528 10.7114C15.7711 11.3394 14.4917 11.3046 13.4799 10.7347L18.702 7.72233C19.5394 7.24547 19.8186 6.17545 19.3417 5.33805C18.8649 4.50065 17.7948 4.22151 16.9574 4.69837L11.7353 7.7107C11.7469 6.54763 12.3633 5.41946 13.445 4.80304L16.12 3.25617C16.9574 2.77931 17.2366 1.7093 16.7597 0.871894C16.2829 0.0344901 15.2128 -0.244645 14.3754 0.232211L11.7004 1.77908C8.92068 3.38411 7.6762 6.62905 8.49035 9.58322L0.872296 13.9796C0.337288 14.2936 0 14.8635 0 15.4916V36.1243C0 36.7523 0.337288 37.3222 0.872296 37.6363L9.80461 42.7886C10.0837 42.9515 10.3745 43.0212 10.6769 43.0212C11.2817 43.0212 11.8632 42.7072 12.1889 42.1489C12.6657 41.3232 12.3866 40.2532 11.5492 39.7763Z" fill="#F54748"/>
</svg>
