<svg width="477" height="299" viewBox="0 0 477 299" fill="none" xmlns="http://www.w3.org/2000/svg">
<path d="M81.3373 295.828C101.334 282.357 106.217 256.872 105.75 233.894C105.678 230.053 106.167 226.017 104.386 222.626C102.605 219.234 98.3688 216.872 94.9008 218.437C92.0287 219.734 90.7219 223.024 89.0776 225.741C86.8742 229.373 83.7013 232.304 79.9228 234.198C77.4528 235.423 74.4083 236.154 72.0245 234.785C68.7359 232.915 68.4344 228.336 68.499 224.524C68.6522 217.418 68.8054 210.312 68.9585 203.205C69.0375 199.394 69.1165 195.495 67.9748 191.858C66.8332 188.22 64.2627 184.821 60.6366 183.749C57.0106 182.676 52.4727 184.705 51.647 188.423C51.3023 189.973 51.5967 191.589 51.4675 193.169C51.3382 194.749 50.5699 196.495 49.0477 196.915C47.5255 197.336 46.0033 196.191 44.876 195.097C40.9843 191.191 38.4138 186.191 35.9438 181.22C33.4738 176.249 31.1617 171.162 27.6434 166.908C24.1251 162.655 19.221 159.234 13.7496 158.872C8.27826 158.51 2.3761 161.771 0.904145 167.104C-0.567806 172.437 2.49816 177.974 5.85852 182.365C10.8637 188.902 16.782 194.672 23.4286 199.495C24.6205 200.372 25.913 201.314 26.3581 202.727C27.148 205.285 24.6923 207.799 22.1577 208.575C19.2856 209.473 16.1981 209.133 13.2039 209.437C10.2097 209.742 6.95709 211.01 5.78671 213.785C4.1568 217.662 7.36637 221.792 10.5472 224.517C16.9299 229.984 24.1937 234.308 32.0233 237.299C34.8236 238.372 37.7675 239.314 40.015 241.321C42.2624 243.328 43.6051 246.778 42.169 249.437C40.733 252.096 37.2147 252.915 34.2708 252.336C31.3269 251.756 28.7132 250.111 25.9129 249.01C20.6857 246.952 13.886 247.212 10.4467 251.691C8.18492 254.633 7.92643 258.778 9.01064 262.343C10.0949 265.908 12.2992 268.995 14.6687 271.85C22.9547 281.836 33.6245 289.93 45.7663 294.314C57.9081 298.698 69.1955 300.024 81.3947 295.763" fill="#EBEBEB"/>
<path d="M75.55 281.336C72.3332 269.691 67.7451 257.228 62.4963 244.38C61.1751 241.162 59.8683 237.988 58.5759 234.858C57.2834 231.735 55.9982 228.641 54.555 225.691C51.7741 220.028 48.6842 214.524 45.2996 209.206C42.0972 204.133 38.8733 199.38 35.8289 194.981C32.7845 190.583 29.8406 186.532 27.0187 182.96C22.5835 177.3 17.7121 172.004 12.45 167.119C10.5903 165.387 9.10401 164.09 8.09159 163.228L6.91403 162.25C6.64837 162.032 6.50476 161.931 6.50476 161.931C6.50476 161.931 6.61964 162.061 6.87095 162.293L7.99825 163.315C8.98912 164.206 10.4539 165.532 12.3064 167.286C17.5 172.225 22.315 177.554 26.71 183.228C29.5103 186.807 32.4111 190.851 35.4483 195.249C38.4856 199.648 41.6736 204.387 44.8616 209.481C48.2251 214.789 51.2958 220.281 54.0595 225.931C55.4956 228.865 56.7665 231.938 58.0589 235.068L61.9721 244.59C67.2209 257.459 71.8091 269.894 75.0474 281.503" fill="#E0E0E0"/>
<path d="M54.4113 225.604C54.5881 225.077 54.7132 224.533 54.7847 223.981C55.0001 222.93 55.2514 221.401 55.5458 219.503C56.1346 215.713 56.7736 210.452 57.4701 204.648C58.1666 198.844 58.9062 193.604 59.5596 189.844C59.8899 187.952 60.1771 186.431 60.3853 185.38C60.5227 184.841 60.6116 184.29 60.651 183.735C60.4439 184.253 60.2829 184.789 60.1699 185.336C59.8899 186.365 59.5452 187.887 59.1647 189.764C58.3964 193.525 57.5994 198.771 56.9029 204.583C56.2064 210.394 55.6104 215.539 55.1509 219.445C54.9139 221.264 54.7201 222.778 54.5693 223.945C54.4706 224.493 54.4177 225.048 54.4113 225.604Z" fill="#E0E0E0"/>
<path d="M5.33435 215.705C5.49707 215.758 5.66624 215.787 5.83697 215.792L7.27302 215.944C8.53674 216.06 10.3605 216.234 12.6079 216.524C17.1171 217.068 23.3065 218.039 30.0919 219.423C36.8772 220.807 42.9589 222.321 47.3245 223.582C49.4785 224.183 51.2736 224.727 52.4871 225.089L53.9231 225.51C54.0839 225.571 54.2538 225.606 54.4257 225.611C54.2816 225.521 54.1273 225.448 53.9662 225.394L52.5948 224.879C51.3957 224.444 49.6509 223.843 47.4752 223.191C43.1671 221.85 37.0423 220.256 30.2426 218.843C23.4429 217.43 17.2033 216.56 12.6582 216.118C10.3964 215.886 8.55828 215.77 7.28738 215.72L5.85133 215.676C5.67857 215.658 5.50406 215.668 5.33435 215.705Z" fill="#E0E0E0"/>
<path d="M75.0186 280.416C75.1466 280.226 75.2572 280.024 75.3489 279.814L76.2105 278.046C76.9286 276.51 77.9697 274.264 79.1903 271.474C81.6388 265.887 84.7909 258.068 88.1585 249.394C91.526 240.72 94.6207 232.887 96.9614 227.271C98.1318 224.517 99.1155 222.264 99.7761 220.626C100.085 219.901 100.336 219.285 100.537 218.814C100.634 218.607 100.711 218.391 100.767 218.169C100.63 218.352 100.516 218.552 100.429 218.764L99.575 220.532C98.857 222.068 97.8159 224.314 96.5952 227.111C94.1396 232.691 90.9947 240.51 87.6271 249.184C84.2596 257.858 81.1649 265.691 78.817 271.307L76.0095 277.959C75.6936 278.684 75.4422 279.292 75.2484 279.763C75.1426 279.969 75.0653 280.189 75.0186 280.416Z" fill="#E0E0E0"/>
<path d="M9.92975 258.43C10.1358 258.539 10.3523 258.627 10.576 258.691L12.4716 259.343L19.4507 261.691C25.3385 263.677 33.4378 266.524 42.3772 269.662C51.3166 272.8 59.4447 275.619 65.354 277.51C68.3123 278.459 70.7176 279.198 72.3835 279.684L74.3149 280.234C74.5372 280.306 74.7655 280.357 74.9971 280.387C74.7894 280.274 74.5703 280.184 74.3437 280.119L72.4553 279.466L65.4761 277.126C59.5883 275.133 51.489 272.285 42.5424 269.119C33.5958 265.952 25.475 263.162 19.5656 261.271C16.6074 260.329 14.202 259.582 12.529 259.097L10.6047 258.546C10.3845 258.483 10.1582 258.444 9.92975 258.43Z" fill="#E0E0E0"/>
<path d="M388.986 148.154L365.712 207.875L453.5 242.72L476.774 182.999L388.986 148.154Z" fill="#EBEBEB"/>
<path d="M476.753 183.8C476.392 183.991 476.015 184.149 475.626 184.271L472.337 185.46L460.188 189.691L419.907 203.394L419.577 203.503L419.404 203.199L418.981 202.474C410.645 187.771 403.105 174.467 397.598 164.735C394.927 159.952 392.759 156.039 391.201 153.25C390.483 151.945 389.93 150.902 389.499 150.105C389.287 149.746 389.104 149.37 388.953 148.981C389.226 149.302 389.467 149.649 389.671 150.018C390.131 150.793 390.748 151.808 391.509 153.083L398.144 164.431L419.742 202.047L420.166 202.771L419.663 202.575L459.987 189.119L472.194 185.141L475.532 184.105C475.929 183.964 476.338 183.862 476.753 183.8Z" fill="#E0E0E0"/>
<path d="M365.689 208.677C365.574 208.467 375.368 202.88 387.553 196.249C399.738 189.619 409.718 184.365 409.812 184.575C409.905 184.786 400.133 190.373 387.941 197.01C375.749 203.648 365.797 208.872 365.689 208.677Z" fill="#E0E0E0"/>
<path d="M439.308 195.408C439.531 195.343 442.898 206.061 446.804 219.321C450.71 232.582 453.705 243.43 453.482 243.495C453.259 243.561 449.892 232.85 445.986 219.582C442.08 206.314 439.078 195.481 439.308 195.408Z" fill="#E0E0E0"/>
<path d="M454.256 70.9083L402.519 93.644L417.703 128.836L469.44 106.101L454.256 70.9083Z" fill="#EBEBEB"/>
<path d="M454.595 71.1914C454.522 71.4266 454.429 71.6546 454.315 71.8726L453.424 73.7784L450.064 80.7494L438.762 103.8L438.669 103.988L438.468 103.93L437.98 103.8L413.115 96.9667L405.597 94.8363L403.558 94.2348C403.312 94.1744 403.071 94.092 402.84 93.9885C403.084 94.0096 403.324 94.0582 403.558 94.1334L405.619 94.6406L413.208 96.5537L438.109 103.242L438.604 103.372L438.31 103.51C442.769 94.5609 446.797 86.4885 449.741 80.5899C451.177 77.6914 452.398 75.3653 453.245 73.6842L454.221 71.8218C454.327 71.6011 454.452 71.3901 454.595 71.1914Z" fill="#E0E0E0"/>
<path d="M418.048 129.162C417.911 129.162 419.721 122.59 422.083 114.575C424.445 106.561 426.484 100.083 426.613 100.126C426.743 100.17 424.948 106.699 422.578 114.72C420.209 122.742 418.184 129.162 418.048 129.162Z" fill="#E0E0E0"/>
<path d="M443.623 92.1115C443.688 91.9883 449.605 95.0897 456.828 99.0317C464.051 102.974 469.853 106.278 469.752 106.409C469.652 106.539 463.778 103.438 456.555 99.4883C449.332 95.539 443.559 92.2057 443.623 92.1115Z" fill="#E0E0E0"/>
<path d="M467.799 296.14C467.799 296.241 363.995 296.328 235.978 296.328C107.962 296.328 4.12811 296.241 4.12811 296.14C4.12811 296.039 107.911 295.952 235.978 295.952C364.045 295.952 467.799 296.031 467.799 296.14Z" fill="#263238"/>
<path d="M384.43 81.1841H87.5625C81.7847 81.1841 77.1009 85.911 77.1009 91.742V282.713C77.1009 288.544 81.7847 293.27 87.5625 293.27H384.43C390.207 293.27 394.891 288.544 394.891 282.713V91.742C394.891 85.911 390.207 81.1841 384.43 81.1841Z" fill="#263238"/>
<path d="M63.8175 277.582H408.11V283.241C408.11 286.662 406.763 289.943 404.367 292.362C401.97 294.781 398.719 296.14 395.329 296.14H76.5624C73.1727 296.14 69.9218 294.781 67.525 292.362C65.1281 289.943 63.7816 286.662 63.7816 283.241V277.582H63.8175Z" fill="#263238"/>
<path d="M385.471 89.6045H85.631V268.705H385.471V89.6045Z" fill="#455A64"/>
<path d="M204.672 277.582L208.944 284.437H269.065L273.028 277.582H204.672Z" fill="#455A64"/>
<path d="M377.565 95.6694H94.154C92.8572 95.6694 91.806 96.7303 91.806 98.039V265.763C91.806 267.072 92.8572 268.133 94.154 268.133H377.565C378.862 268.133 379.913 267.072 379.913 265.763V98.039C379.913 96.7303 378.862 95.6694 377.565 95.6694Z" fill="#EBEBEB"/>
<path d="M379.913 108.307H91.806V268.14H379.913V108.307Z" fill="#EBEBEB"/>
<path d="M115.436 102.351C115.438 102.811 115.303 103.262 115.051 103.646C114.798 104.029 114.438 104.328 114.017 104.505C113.595 104.682 113.131 104.729 112.683 104.64C112.236 104.55 111.824 104.328 111.502 104.003C111.179 103.677 110.959 103.262 110.87 102.81C110.782 102.358 110.828 101.89 111.003 101.464C111.179 101.039 111.475 100.676 111.855 100.421C112.235 100.166 112.682 100.03 113.139 100.032C113.747 100.034 114.331 100.279 114.761 100.713C115.192 101.147 115.434 101.736 115.436 102.351Z" fill="#455A64"/>
<path d="M101.492 102.351C101.494 102.811 101.359 103.262 101.107 103.646C100.854 104.029 100.494 104.328 100.073 104.505C99.6512 104.682 99.1872 104.729 98.7394 104.64C98.2917 104.55 97.8803 104.328 97.5575 104.003C97.2348 103.677 97.0151 103.262 96.9264 102.81C96.8377 102.358 96.8839 101.89 97.0593 101.464C97.2346 101.039 97.5311 100.676 97.9113 100.421C98.2914 100.166 98.738 100.03 99.1945 100.032C99.8033 100.034 100.387 100.279 100.817 100.713C101.248 101.147 101.49 101.736 101.492 102.351Z" fill="#455A64"/>
<path d="M108.155 102.351C108.157 102.811 108.023 103.262 107.77 103.646C107.517 104.029 107.157 104.328 106.736 104.505C106.315 104.682 105.85 104.729 105.403 104.64C104.955 104.55 104.544 104.328 104.221 104.003C103.898 103.677 103.678 103.262 103.59 102.81C103.501 102.358 103.547 101.89 103.723 101.464C103.898 101.039 104.194 100.676 104.575 100.421C104.955 100.166 105.401 100.03 105.858 100.032C106.467 100.034 107.05 100.279 107.48 100.713C107.911 101.147 108.154 101.736 108.155 102.351Z" fill="#455A64"/>
<path d="M392.163 277.582C392.163 277.698 321.624 277.785 234.643 277.785C147.661 277.785 77.1009 277.698 77.1009 277.582C77.1009 277.466 147.625 277.372 234.643 277.372C321.66 277.372 392.163 277.466 392.163 277.582Z" fill="#455A64"/>
<path d="M77.0363 279.886C76.9508 279.846 76.8691 279.797 76.7922 279.741L76.0742 279.27L74.9253 278.48C74.473 278.162 73.9345 277.814 73.3744 277.343L71.4573 275.821C70.7393 275.249 70.0212 274.553 69.2601 273.843C67.4607 272.152 65.7811 270.336 64.234 268.408C60.0391 263.076 56.8353 257.022 54.7776 250.539C52.1013 241.932 51.0897 232.886 51.7978 223.894C52.1673 218.673 53.0647 213.503 54.476 208.466C55.9739 202.983 58.206 197.732 61.1105 192.858C61.8645 191.597 62.7117 190.379 63.5949 189.169L66.4096 185.647C67.4076 184.517 68.4488 183.401 69.4827 182.263C70.5167 181.126 71.6799 180.089 72.7856 179.002C77.4985 174.662 82.5747 170.742 87.9575 167.285C98.9576 160.104 111.387 154.162 124.182 147.974C136.941 141.669 150.39 135.619 164.176 129.503C219.385 105.097 269.912 84.3143 306.718 69.8796C325.114 62.6332 340.127 57.1043 350.517 53.3144C355.716 51.4449 359.78 50.0536 362.523 49.097L365.653 48.0173L366.457 47.7565C366.546 47.7221 366.637 47.6954 366.73 47.6768L366.472 47.7927L365.682 48.097L362.573 49.242L350.618 53.5898C340.264 57.4666 325.286 63.0608 306.919 70.3723C270.199 84.9593 219.708 105.829 164.506 130.22C150.72 136.343 137.3 142.372 124.541 148.669C111.731 154.85 99.3238 160.771 88.3667 167.901C83.019 171.32 77.974 175.199 73.2882 179.495C72.1897 180.582 71.0552 181.618 70.0069 182.72C68.9586 183.821 67.9461 184.952 66.9481 186.075L64.155 189.56C63.279 190.749 62.4389 191.944 61.6993 193.184C58.8107 198.003 56.5882 203.199 55.0935 208.626C53.6729 213.622 52.7634 218.753 52.3794 223.937C51.6588 232.867 52.6336 241.854 55.2515 250.415C57.2505 256.883 60.3802 262.937 64.4924 268.292C66.0136 270.218 67.6616 272.039 69.4253 273.741C70.2079 274.466 70.9044 275.191 71.5793 275.741L73.4606 277.292C74.0134 277.77 74.5448 278.125 74.9971 278.451L76.1173 279.27L76.7994 279.77C76.882 279.801 76.9613 279.84 77.0363 279.886Z" fill="#263238"/>
<path d="M354.689 23.8437L367.987 34.9669L366.759 47.706L377.651 41.5973L389.255 49.9161L432.494 21.8872L354.689 23.8437Z" fill="#FF725E"/>
<g opacity="0.5">
<path opacity="0.5" d="M367.987 34.9667L431.324 21.916L374.435 39.2928L366.759 47.7058L367.987 34.9667Z" fill="black"/>
</g>
<g opacity="0.8">
<path opacity="0.8" d="M374.435 39.293L377.651 41.5973L366.759 47.706L374.435 39.293Z" fill="black"/>
</g>
<path d="M175.24 191.343L106.168 197.957L110.585 244.942L179.657 238.328L175.24 191.343Z" fill="white"/>
<path d="M179.656 238.336C179.656 238.336 179.606 238.032 179.549 237.466C179.491 236.901 179.398 236.017 179.283 234.974C179.06 232.8 178.737 229.582 178.328 225.51C177.524 217.336 176.382 205.626 174.982 191.372L175.262 191.604L106.202 198.285C106.131 198.358 106.741 197.611 106.49 197.937V198.111V198.307L106.526 198.698L106.597 199.481L106.741 201.046C106.841 202.09 106.942 203.126 107.035 204.155C107.227 206.227 107.418 208.28 107.61 210.314C107.988 214.387 108.364 218.392 108.737 222.329C109.455 230.191 110.173 237.749 110.841 244.908L110.518 244.64L160.277 240.032L174.522 238.749L178.321 238.416L179.312 238.343C179.426 238.335 179.542 238.335 179.656 238.343C179.554 238.363 179.451 238.378 179.348 238.387L178.393 238.495L174.659 238.894L160.499 240.343L110.611 245.263H110.317V244.966C109.635 237.807 108.924 230.249 108.163 222.387C107.789 218.449 107.411 214.445 107.028 210.372C106.832 208.338 106.638 206.288 106.447 204.22C106.346 203.184 106.253 202.148 106.152 201.111L106.009 199.546L105.93 198.764V198.372V198.177V198.075V198.003L106.224 197.64L175.298 191.119H175.556V191.38C176.842 205.713 177.904 217.466 178.644 225.706C178.996 229.756 179.276 232.952 179.462 235.126C179.549 236.177 179.62 236.988 179.663 237.575C179.707 238.162 179.656 238.336 179.656 238.336Z" fill="#455A64"/>
<path d="M175.24 191.344C175.083 191.601 174.902 191.844 174.702 192.068L173.079 193.981L166.983 200.967L146.548 224.025L146.369 224.235L146.139 224.083L144.301 222.902L117.26 205.402L109.11 200.032C108.191 199.416 107.466 198.916 106.906 198.547C106.649 198.385 106.409 198.198 106.188 197.989C106.47 198.113 106.742 198.261 106.999 198.431L109.261 199.815L117.49 204.981L144.631 222.322L146.469 223.51L146.06 223.568L166.638 200.634L172.878 193.793L174.594 191.96C174.79 191.735 175.007 191.529 175.24 191.344Z" fill="#455A64"/>
<path d="M321.254 123.467L311.922 156.792L360.919 170.766L370.25 137.44L321.254 123.467Z" fill="white"/>
<path d="M360.9 170.778C360.9 170.778 360.95 170.554 361.058 170.155C361.166 169.756 361.324 169.141 361.532 168.38C361.955 166.807 362.573 164.539 363.363 161.648L370.055 137.401L370.184 137.633L321.179 123.706L321.466 123.546V123.597V123.67L321.43 123.807L321.351 124.083L321.193 124.641L320.884 125.749L320.267 127.923L319.046 132.271C318.235 135.17 317.438 138.003 316.655 140.793C315.083 146.365 313.582 151.728 312.153 156.807L312.002 156.532L347.236 166.677L357.288 169.612L359.981 170.401L360.699 170.619L360.936 170.699L360.713 170.648L359.995 170.467L357.339 169.742L347.286 166.93L311.866 156.938L311.658 156.88L311.715 156.67C313.151 151.597 314.63 146.228 316.189 140.648C316.964 137.86 317.759 135.02 318.572 132.126L319.793 127.778C319.994 127.054 320.202 126.329 320.411 125.604L320.719 124.496L320.877 123.945L320.949 123.662L320.992 123.525V123.452V123.402L321.287 123.235L370.263 137.249L370.45 137.307L370.392 137.488C367.52 147.633 365.136 155.974 363.485 161.8L361.618 168.474C361.403 169.199 361.23 169.793 361.115 170.206C361 170.619 360.9 170.778 360.9 170.778Z" fill="#455A64"/>
<path d="M370.234 137.452C370.062 137.579 369.88 137.69 369.689 137.786L368.08 138.655L362.078 141.8L342.03 152.104L341.851 152.199L341.736 152.032L340.795 150.735L326.902 131.517L322.73 125.662L321.624 124.09C321.483 123.911 321.363 123.716 321.265 123.51C321.426 123.671 321.572 123.846 321.703 124.032L322.888 125.59L327.196 131.351L341.205 150.488L342.152 151.786L341.851 151.713L361.955 141.568L368.023 138.561L369.681 137.764C369.856 137.643 370.041 137.539 370.234 137.452Z" fill="#455A64"/>
<path d="M111.86 115.525C111.86 115.525 115.242 112.764 120.477 121.046C123.224 125.258 125.69 129.649 127.858 134.191C127.858 134.191 129.201 135.902 130.328 134.59C131.455 133.278 132.834 129.72 135.002 130.126C137.171 130.532 138.212 132.938 138.14 136.604C138.068 140.271 138.212 148.307 138.226 149.032C138.241 149.757 138.743 150.749 139.662 149.981C140.581 149.213 145.579 142.351 148.659 144.945C151.74 147.539 149.88 157.72 149.7 158.836C149.521 159.952 149.772 160.394 150.311 160.619C150.849 160.843 152.321 158.372 153.822 156.481C155.322 154.59 157.412 152.662 159.049 154.307C160.686 155.952 161.921 163.343 156.04 176.097L152.946 181.829L146.484 182.104C132.554 181.822 126.494 177.51 125.754 175.293C125.015 173.075 127.635 172.032 129.976 171.496C132.317 170.959 135.153 170.713 135.196 170.126C135.239 169.539 134.952 169.112 133.875 168.793C132.798 168.474 122.918 165.691 121.963 161.764C121.008 157.836 129.301 156.293 130.385 155.8C131.47 155.307 130.795 154.416 130.17 154.09C129.545 153.764 122.43 150.112 119.134 148.575C115.838 147.039 114.108 145.112 114.733 142.887C115.357 140.662 119.091 141.046 120.757 140.597C122.423 140.148 121.475 138.184 121.475 138.184C118.379 134.23 115.548 130.071 113.002 125.735C107.919 117.351 111.961 115.474 111.961 115.474" fill="#FF725E"/>
<path d="M116.563 122.931C116.593 122.993 116.627 123.054 116.664 123.112L116.966 123.634L118.15 125.626C119.184 127.351 120.692 129.844 122.573 132.873C126.329 139.018 131.592 147.452 137.436 156.742C143.281 166.032 148.559 174.467 152.35 180.583C154.238 183.641 155.768 186.112 156.838 187.829L158.058 189.8C158.195 190.017 158.302 190.191 158.381 190.307L158.496 190.481C158.466 190.419 158.433 190.358 158.396 190.3L158.094 189.778L156.909 187.858C155.875 186.133 154.36 183.641 152.486 180.575C148.724 174.438 143.468 165.996 137.623 156.699C131.778 147.402 126.494 138.981 122.703 132.865L118.222 125.619C117.698 124.771 117.289 124.105 117.001 123.648L116.678 123.141C116.607 122.989 116.563 122.931 116.563 122.931Z" fill="#263238"/>
<path d="M133.286 135.169C133.228 135.316 133.187 135.47 133.164 135.626C133.1 135.923 133.013 136.351 132.92 136.887C132.726 137.952 132.496 139.43 132.274 141.075C132.051 142.72 131.872 144.14 131.721 145.271C131.656 145.771 131.592 146.191 131.549 146.539C131.515 146.694 131.501 146.852 131.506 147.01C131.566 146.863 131.609 146.71 131.635 146.553C131.699 146.256 131.778 145.829 131.872 145.293C132.058 144.227 132.267 142.742 132.489 141.104C132.712 139.467 132.913 138.039 133.071 136.909C133.143 136.416 133.2 135.988 133.25 135.64C133.28 135.485 133.292 135.327 133.286 135.169Z" fill="#263238"/>
<path d="M130.91 147.184C130.91 147.126 127.915 146.51 124.203 145.814C120.491 145.119 117.461 144.604 117.454 144.662C117.447 144.72 120.448 145.336 124.16 146.032C127.872 146.727 130.902 147.278 130.91 147.184Z" fill="#263238"/>
<path d="M140.524 161.047C140.364 161.027 140.203 161.027 140.043 161.047L138.75 161.177C137.659 161.278 136.151 161.423 134.485 161.518C132.82 161.612 131.305 161.663 130.213 161.684H128.914C128.752 161.682 128.591 161.694 128.432 161.721C128.59 161.758 128.752 161.775 128.914 161.771C129.215 161.771 129.632 161.807 130.213 161.815C131.305 161.815 132.827 161.815 134.521 161.721C136.216 161.626 137.702 161.452 138.794 161.307C139.332 161.235 139.777 161.163 140.079 161.112C140.229 161.105 140.378 161.083 140.524 161.047Z" fill="#263238"/>
<path d="M145.026 150.663C144.942 150.783 144.87 150.912 144.811 151.047L144.279 152.141C143.848 153.061 143.26 154.315 142.621 155.764C141.982 157.213 141.414 158.474 141.012 159.387C140.811 159.858 140.653 160.235 140.553 160.503C140.487 160.636 140.439 160.778 140.409 160.923C140.499 160.807 140.572 160.677 140.624 160.539C140.754 160.286 140.933 159.916 141.156 159.452C141.594 158.525 142.183 157.279 142.822 155.829C143.461 154.38 144.021 153.119 144.423 152.206C144.624 151.742 144.782 151.358 144.89 151.09C144.954 150.955 145 150.811 145.026 150.663Z" fill="#263238"/>
<path d="M155.057 161.822C154.945 161.975 154.851 162.14 154.777 162.315C154.597 162.684 154.368 163.155 154.102 163.713C153.535 164.887 152.766 166.525 151.948 168.336C151.129 170.148 150.368 171.8 149.837 172.996C149.593 173.568 149.384 174.046 149.219 174.445C149.138 174.618 149.07 174.797 149.018 174.981C149.131 174.826 149.225 174.659 149.298 174.481L149.98 173.09C150.54 171.909 151.309 170.278 152.134 168.459C152.96 166.641 153.714 165.003 154.245 163.807C154.497 163.235 154.698 162.757 154.863 162.358C154.947 162.187 155.012 162.007 155.057 161.822Z" fill="#263238"/>
<path d="M149.083 174.597C148.882 174.58 148.68 174.58 148.48 174.597L146.835 174.699C145.45 174.786 143.533 174.901 141.414 174.967C139.296 175.032 137.372 175.046 135.979 175.046H134.335C134.134 175.03 133.932 175.03 133.732 175.046C133.93 175.085 134.132 175.104 134.335 175.104C134.722 175.104 135.282 175.155 135.979 175.177C137.372 175.213 139.296 175.228 141.422 175.177C143.547 175.126 145.464 174.974 146.85 174.851C147.568 174.786 148.099 174.728 148.487 174.677C148.688 174.67 148.887 174.643 149.083 174.597Z" fill="#263238"/>
<path d="M362.961 180.887C361.732 180.369 360.412 180.107 359.081 180.117C357.75 180.127 356.434 180.409 355.213 180.945C352.775 182.032 350.616 183.668 348.902 185.728C345.484 189.604 343.581 195.257 342.626 200.358C348.291 201.083 353.827 197.394 356.52 195.358C360.778 192.133 366.529 183.706 362.982 180.865" fill="#FF725E"/>
<path d="M332.38 202.35C333.714 201.683 334.849 200.671 335.67 199.417C336.491 198.163 336.969 196.713 337.054 195.213C337.116 193.713 336.881 192.216 336.363 190.809C335.845 189.402 335.055 188.113 334.039 187.017C333.12 185.988 331.885 185.061 330.528 185.126C329.888 185.197 329.28 185.441 328.766 185.831C328.252 186.221 327.851 186.743 327.605 187.343C327.122 188.551 326.964 189.866 327.146 191.155C327.576 195.575 328.797 199.771 332.38 202.35Z" fill="#FF725E"/>
<path d="M324.934 216.778C324.934 216.778 325.221 216.51 325.652 215.959C326.083 215.408 326.686 214.604 327.404 213.582C329.329 210.94 330.893 208.05 332.057 204.988C333.204 201.878 333.494 198.512 332.897 195.249C332.7 194.269 332.384 193.317 331.956 192.416C331.841 192.08 331.674 191.764 331.461 191.481C331.927 192.732 332.295 194.019 332.559 195.329C333.016 198.519 332.67 201.773 331.554 204.793C330.395 207.805 328.901 210.676 327.102 213.35C326.313 214.448 325.589 215.593 324.934 216.778Z" fill="#263238"/>
<path d="M357.855 186.807C357.346 187.119 356.866 187.475 356.419 187.872C355.522 188.597 354.265 189.648 352.657 190.967C349.512 193.611 345.218 197.336 340.587 201.561C335.956 205.785 331.841 209.727 328.919 212.619C327.483 214.068 326.291 215.249 325.494 216.082C325.059 216.491 324.66 216.937 324.302 217.416C324.783 217.062 325.235 216.67 325.652 216.242L329.206 212.916C332.193 210.097 336.336 206.22 340.975 201.996C345.613 197.771 349.85 194.025 352.923 191.278L356.563 188.046C357.026 187.668 357.458 187.254 357.855 186.807Z" fill="#263238"/>
<path d="M335.64 210.169C338.257 208.417 341.251 207.319 344.373 206.967C347.495 206.616 350.655 207.02 353.59 208.147C355.07 208.734 356.685 209.807 356.707 211.416C356.728 213.024 355.149 214.155 353.669 214.749C350.555 215.945 347.16 216.184 343.911 215.434C340.663 214.685 337.707 212.982 335.417 210.539" fill="#FF725E"/>
<path d="M349.72 211.046C349.439 210.841 349.126 210.684 348.794 210.582C348.427 210.412 348.048 210.269 347.659 210.155C347.148 209.986 346.628 209.843 346.101 209.727C344.737 209.407 343.344 209.229 341.944 209.198C338.497 209.118 335.078 209.844 331.956 211.322C330.691 211.924 329.488 212.652 328.366 213.496C327.932 213.813 327.517 214.157 327.124 214.524C326.812 214.785 326.519 215.069 326.248 215.372C325.796 215.865 325.53 216.148 325.587 216.177C325.645 216.206 326.672 215.177 328.603 213.829C329.738 213.048 330.939 212.372 332.193 211.807C333.731 211.128 335.33 210.601 336.968 210.235C338.623 209.898 340.306 209.728 341.994 209.727C343.365 209.734 344.732 209.865 346.08 210.119C348.327 210.597 349.684 211.177 349.72 211.046Z" fill="#263238"/>
<path d="M330.865 52.3867H149.392V253.205H330.865V52.3867Z" fill="#FAFAFA"/>
<path d="M330.865 253.205C330.865 251.756 330.8 172.394 330.7 52.3869L330.865 52.5536H149.413L149.6 52.3652C149.6 126.278 149.6 195.271 149.6 253.183L149.442 253.024L330.915 253.183L149.442 253.343H149.284V253.183C149.284 195.271 149.284 126.264 149.284 52.3652V52.1768H149.492H330.944H331.109V52.3362C330.93 172.401 330.865 251.778 330.865 253.205Z" fill="#263238"/>
<path d="M281.788 211.669H212.441C206.687 211.669 202.023 216.376 202.023 222.183V224.314C202.023 230.121 206.687 234.828 212.441 234.828H281.788C287.542 234.828 292.207 230.121 292.207 224.314V222.183C292.207 216.376 287.542 211.669 281.788 211.669Z" fill="#FF725E"/>
<g opacity="0.5">
<path opacity="0.5" d="M281.788 211.669H212.441C206.687 211.669 202.023 216.376 202.023 222.183V224.314C202.023 230.121 206.687 234.828 212.441 234.828H281.788C287.542 234.828 292.207 230.121 292.207 224.314V222.183C292.207 216.376 287.542 211.669 281.788 211.669Z" fill="black"/>
</g>
<path d="M274.213 211.669H204.866C199.112 211.669 194.448 216.376 194.448 222.183V224.314C194.448 230.121 199.112 234.828 204.866 234.828H274.213C279.967 234.828 284.631 230.121 284.631 224.314V222.183C284.631 216.376 279.967 211.669 274.213 211.669Z" fill="#FF725E"/>
<path d="M219.334 224.749L219.643 224.024C220.097 224.361 220.645 224.544 221.208 224.546C221.926 224.546 222.264 224.285 222.264 223.923C222.264 222.887 219.435 223.568 219.435 221.785C219.435 221.01 220.052 220.336 221.352 220.336C221.91 220.327 222.459 220.475 222.939 220.763L222.659 221.488C222.261 221.249 221.808 221.119 221.345 221.111C220.627 221.111 220.311 221.394 220.311 221.756C220.311 222.778 223.133 222.118 223.133 223.879C223.133 224.647 222.515 225.329 221.208 225.329C220.537 225.35 219.878 225.146 219.334 224.749Z" fill="#FAFAFA"/>
<path d="M223.973 223.169V220.466H224.856V223.14C224.856 224.126 225.294 224.553 226.062 224.553C226.83 224.553 227.268 224.126 227.268 223.14V220.466H228.137V223.176C228.137 223.734 227.918 224.268 227.527 224.662C227.137 225.056 226.607 225.278 226.055 225.278C225.503 225.278 224.973 225.056 224.583 224.662C224.192 224.268 223.973 223.734 223.973 223.176V223.169Z" fill="#FAFAFA"/>
<path d="M233.601 223.952C233.601 224.778 232.962 225.256 231.742 225.256H229.372V220.466H231.605C232.747 220.466 233.357 220.952 233.357 221.713C233.364 221.929 233.31 222.143 233.202 222.33C233.094 222.517 232.936 222.669 232.747 222.771C233.001 222.841 233.224 222.996 233.379 223.211C233.534 223.425 233.612 223.686 233.601 223.952ZM230.255 221.191V222.517H231.505C232.122 222.517 232.467 222.3 232.467 221.858C232.467 221.416 232.122 221.191 231.505 221.191H230.255ZM232.711 223.901C232.711 223.423 232.352 223.213 231.684 223.213H230.248V224.597H231.684C232.374 224.561 232.711 224.343 232.711 223.865V223.901Z" fill="#FAFAFA"/>
<path d="M234.147 224.749L234.449 224.024C234.905 224.361 235.456 224.544 236.021 224.546C236.739 224.546 237.077 224.285 237.077 223.923C237.077 222.887 234.248 223.568 234.248 221.785C234.248 221.01 234.858 220.336 236.165 220.336C236.721 220.327 237.268 220.475 237.744 220.763L237.464 221.488C237.069 221.248 236.619 221.118 236.158 221.111C235.44 221.111 235.124 221.394 235.124 221.756C235.124 222.778 237.945 222.118 237.945 223.879C237.945 224.647 237.328 225.329 236.021 225.329C235.35 225.35 234.691 225.146 234.147 224.749Z" fill="#FAFAFA"/>
<path d="M238.484 222.858C238.508 222.35 238.678 221.86 238.975 221.45C239.272 221.039 239.682 220.726 240.154 220.548C240.626 220.371 241.139 220.337 241.63 220.451C242.12 220.565 242.567 220.823 242.914 221.191L242.34 221.734C242.18 221.554 241.985 221.41 241.765 221.312C241.546 221.215 241.308 221.166 241.069 221.169C240.625 221.169 240.2 221.347 239.886 221.664C239.572 221.98 239.396 222.41 239.396 222.858C239.396 223.305 239.572 223.735 239.886 224.052C240.2 224.368 240.625 224.546 241.069 224.546C241.309 224.549 241.547 224.5 241.767 224.401C241.986 224.302 242.182 224.156 242.34 223.974L242.914 224.524C242.567 224.893 242.12 225.15 241.63 225.264C241.139 225.378 240.626 225.345 240.154 225.167C239.682 224.99 239.272 224.676 238.975 224.266C238.678 223.855 238.508 223.365 238.484 222.858Z" fill="#FAFAFA"/>
<path d="M246.878 225.256L245.901 223.85H244.645V225.249H243.761V220.466H245.722C246.971 220.466 247.746 221.111 247.746 222.176C247.761 222.505 247.67 222.829 247.488 223.102C247.305 223.375 247.041 223.581 246.734 223.691L247.825 225.263L246.878 225.256ZM245.679 221.191H244.645V223.104H245.679C246.454 223.104 246.856 222.749 246.856 222.147C246.856 221.546 246.454 221.191 245.679 221.191Z" fill="#FAFAFA"/>
<path d="M248.73 220.466H249.606V225.263H248.723L248.73 220.466Z" fill="#FAFAFA"/>
<path d="M255.128 223.952C255.128 224.778 254.489 225.256 253.261 225.256H250.899V220.466H253.124C254.266 220.466 254.884 220.952 254.884 221.713C254.89 221.93 254.835 222.144 254.726 222.332C254.617 222.519 254.457 222.671 254.266 222.771C254.521 222.84 254.746 222.994 254.902 223.209C255.059 223.423 255.138 223.685 255.128 223.952ZM251.76 221.191V222.517H253.01C253.62 222.517 253.972 222.3 253.972 221.858C253.972 221.416 253.62 221.191 253.01 221.191H251.76ZM254.216 223.901C254.216 223.423 253.857 223.213 253.189 223.213H251.753V224.597H253.189C253.914 224.561 254.237 224.343 254.237 223.865L254.216 223.901Z" fill="#FAFAFA"/>
<path d="M259.659 224.51V225.234H256.068V220.466H259.536V221.191H256.952V222.437H259.242V223.162H256.952V224.488L259.659 224.51Z" fill="#FAFAFA"/>
<path d="M292.939 196.227C292.939 196.328 269.862 196.415 241.399 196.415C212.937 196.415 189.852 196.328 189.852 196.227C189.852 196.126 212.922 196.039 241.399 196.039C269.876 196.039 292.939 196.118 292.939 196.227Z" fill="#263238"/>
<path d="M309.066 202.517C309.066 202.618 278.765 202.705 241.399 202.705C204.033 202.705 173.725 202.618 173.725 202.517C173.725 202.416 204.019 202.329 241.399 202.329C278.779 202.329 309.066 202.416 309.066 202.517Z" fill="#263238"/>
<path d="M157.922 60.1987C157.922 60.5054 157.832 60.8052 157.663 61.0602C157.494 61.3152 157.254 61.514 156.973 61.6314C156.692 61.7487 156.383 61.7794 156.085 61.7196C155.787 61.6598 155.514 61.5121 155.299 61.2952C155.084 61.0783 154.937 60.802 154.878 60.5012C154.819 60.2004 154.849 59.8886 154.966 59.6052C155.082 59.3219 155.279 59.0797 155.531 58.9093C155.784 58.7389 156.081 58.648 156.385 58.648C156.587 58.647 156.787 58.6865 156.974 58.764C157.161 58.8416 157.331 58.9558 157.474 59.1C157.617 59.2442 157.73 59.4155 157.807 59.6041C157.884 59.7927 157.923 59.9948 157.922 60.1987Z" fill="#E0E0E0"/>
<path d="M161.512 61.7494C162.36 61.7494 163.048 61.0551 163.048 60.1987C163.048 59.3422 162.36 58.6479 161.512 58.6479C160.663 58.6479 159.975 59.3422 159.975 60.1987C159.975 61.0551 160.663 61.7494 161.512 61.7494Z" fill="#E0E0E0"/>
<path d="M168.168 60.1987C168.168 60.5054 168.078 60.8052 167.909 61.0602C167.74 61.3152 167.5 61.514 167.219 61.6313C166.939 61.7487 166.63 61.7794 166.332 61.7196C166.033 61.6598 165.76 61.5121 165.545 61.2952C165.33 61.0783 165.184 60.802 165.124 60.5012C165.065 60.2004 165.095 59.8886 165.212 59.6052C165.328 59.3219 165.525 59.0797 165.778 58.9093C166.03 58.7389 166.327 58.6479 166.631 58.6479C167.039 58.6479 167.43 58.8113 167.718 59.1021C168.006 59.393 168.168 59.7874 168.168 60.1987Z" fill="#E0E0E0"/>
<path d="M317.359 92.677L320.346 81.8075C320.346 81.8075 321.416 77.3944 321.674 76.3654C322.012 75.0031 321.064 74.5756 320.511 75.5031C320.296 75.851 317.933 80.3437 317.933 80.3437C317.933 80.3437 319.815 72.9886 319.886 72.7205C320.497 70.322 319.018 70.5466 318.587 71.4307C318.156 72.3147 315.478 79.5538 315.478 79.5538C317.984 70.0973 317.201 69.264 316.49 69.1118C315.779 68.9597 313.618 77.6118 313.618 77.6118C313.049 76.6273 312.278 75.7773 311.356 75.1191C309.094 73.5466 305.318 75.1191 305.138 76.1915C304.959 77.264 306.301 77.5683 306.301 77.5683C309.138 75.7205 312.046 77.9597 311.751 80.6843C311.457 83.4089 308.025 83.0393 307.601 81.0973C306.66 76.8292 305.21 78.1988 305.21 78.1988L306.646 87.619L305.102 92.3437" fill="#FFBE9D"/>
<path d="M209.871 136.945L274.385 136.51L276.159 180.778L209.361 180.112L209.871 136.945Z" fill="#455A64"/>
<path d="M209.871 136.945L242.641 110.22L274.385 136.51" fill="#263238"/>
<path d="M209.397 180.112C209.311 180.039 214.48 174.351 220.935 167.409C227.391 160.467 232.69 154.909 232.769 154.981C232.847 155.054 227.685 160.742 221.23 167.684C214.775 174.626 209.44 180.191 209.397 180.112Z" fill="#263238"/>
<path d="M276.173 180.778C276.094 180.85 271.068 175.271 264.95 168.314C258.833 161.358 253.914 155.662 254.008 155.59C254.101 155.517 259.113 161.097 265.23 168.053C271.348 175.01 276.245 180.705 276.173 180.778Z" fill="#263238"/>
<path d="M274.385 136.51L241.974 162.612L209.871 136.945" fill="#263238"/>
<path d="M166.761 87.061H166.976L166.114 84.1624L163.35 73.032C163.227 72.5367 163.292 72.0128 163.532 71.5635C163.773 71.1142 164.172 70.7721 164.65 70.6045L166.638 70.532L173.445 67.3219C173.741 67.2108 174.058 67.1668 174.373 67.1928C174.687 67.2189 174.992 67.3145 175.266 67.4729C175.54 67.6312 175.777 67.8484 175.958 68.109C176.14 68.3697 176.263 68.6675 176.317 68.9813C176.569 71.032 177.947 76.5248 179.412 74.5972L179.52 74.4741C181.581 71.6117 184.151 70.061 185.207 70.1262C185.434 70.1454 185.652 70.2306 185.832 70.3715C186.013 70.5125 186.15 70.7032 186.226 70.9207C186.302 71.1381 186.314 71.3731 186.26 71.5973C186.207 71.8215 186.09 72.0253 185.925 72.1842C185.82 72.3231 185.688 72.4389 185.537 72.5248C185.459 72.5705 185.385 72.6213 185.314 72.677C184.403 73.4896 183.579 74.3981 182.859 75.3871C182.197 76.2591 181.69 77.2396 181.358 78.2856C180.992 79.445 180.726 80.4595 180.518 81.3146L181.049 86.9958" fill="#FFBE9D"/>
<path d="M184.941 36.6336C184.941 36.6336 176.978 35.0974 165.554 24.6119C154.131 14.1264 148.472 -0.0764625 147.108 0.0322329C145.744 0.140928 139.748 -2.47501 129.1 22.6916C118.452 47.8582 123.105 53.5031 125.352 53.3944C127.6 53.2857 142.771 48.5466 152.357 49.3654C161.943 50.1843 174.357 54.8582 174.357 54.8582L184.941 36.6336Z" fill="#455A64"/>
<path d="M202.13 49.6987L199.574 54.9523L198.433 57.3073C197.677 58.8548 196.364 60.0526 194.763 60.656C193.161 61.2593 191.392 61.2228 189.816 60.5537L172.684 55.0755L181.897 32.061L199.093 40.6842C200.674 41.4802 201.879 42.8735 202.448 44.5613C203.017 46.2491 202.903 48.0953 202.13 49.6987Z" fill="#263238"/>
<path d="M192.581 58.2715L187.483 69.141L184.754 68.4598L167.522 83.4525L162.316 73.8511C162.316 73.8511 172.62 69.0178 174.443 65.2135C176.267 61.4091 174.013 60.612 174.013 60.612L178.766 54.8149L192.581 58.2715Z" fill="#263238"/>
<path d="M130.026 23.1193C124.383 36.7497 122.214 48.8149 125.18 50.0685C128.145 51.3221 135.132 41.2859 140.775 27.6555C146.419 14.0251 148.587 1.95996 145.622 0.706343C142.656 -0.547277 135.67 9.48893 130.026 23.1193Z" fill="#263238"/>
<path d="M203.796 57.1405L199.158 55.8145L201.85 50.271L205.354 52.3362L203.796 57.1405Z" fill="#455A64"/>
<path d="M177.129 56.793L189.701 64.3872L191.159 61.3002L177.129 56.793Z" fill="#455A64"/>
<path d="M201.85 50.271L199.158 55.8145L200.106 56.0826L202.267 50.5174L201.85 50.271Z" fill="#455A64"/>
<path d="M198.713 51.6265C198.655 51.7786 196.336 50.9018 193.536 49.7569C190.735 48.612 188.51 47.496 188.581 47.3439C188.653 47.1917 190.965 48.0685 193.765 49.2134C196.566 50.3583 198.777 51.4743 198.713 51.6265Z" fill="#455A64"/>
<path d="M200.063 48.3292C199.991 48.4814 197.908 47.6553 195.367 46.4959C192.825 45.3365 190.85 44.264 190.922 44.1118C190.994 43.9596 193.076 44.7857 195.611 45.9524C198.145 47.1191 200.106 48.1843 200.063 48.3292Z" fill="#455A64"/>
<path d="M197.025 55.0828C197.025 55.1625 196.458 55.0828 195.589 54.8074C195.144 54.6842 194.627 54.5248 194.053 54.3437C193.478 54.1625 192.882 53.8654 192.243 53.619C189.694 52.5103 187.741 51.4451 187.799 51.2784C187.856 51.1118 189.953 52.0031 192.473 53.0683C193.105 53.3364 193.694 53.6335 194.247 53.8509L195.718 54.4234C196.544 54.7495 197.047 55.0031 197.025 55.0828Z" fill="#455A64"/>
<path d="M142.226 19.7788C142.226 19.7788 135.225 15.6702 131.728 25.1556C128.231 34.6411 135.505 35.9744 135.505 35.9744C138.488 30.9214 140.751 25.4692 142.226 19.7788Z" fill="#455A64"/>
<path d="M149.219 8.39453C149.202 8.99897 149.13 9.60055 149.004 10.1916C148.817 11.3438 148.559 13.0177 148.171 15.0684C147.912 16.0829 147.625 17.1916 147.316 18.38C147.158 18.9742 147 19.5902 146.835 20.2206L146.577 21.1916C146.484 21.5177 146.361 21.8293 146.254 22.1626L144.818 26.2496C144.696 26.6046 144.566 26.9742 144.437 27.322C144.308 27.6698 144.136 28.0467 143.985 28.3872L143.023 30.5611C142.7 31.2858 142.376 32.0104 142.053 32.735C141.888 33.0829 141.752 33.4597 141.565 33.7785C141.378 34.0974 141.206 34.4452 141.019 34.7785C140.301 36.0901 139.583 37.3655 138.937 38.5756C138.765 38.8727 138.614 39.1771 138.434 39.4597L137.889 40.293L136.833 41.88L134.945 44.7205C133.674 46.3655 132.604 47.6698 131.872 48.5683C131.509 49.0525 131.111 49.5079 130.68 49.9307C130.971 49.4007 131.31 48.8986 131.692 48.4307L134.607 44.4669L136.431 41.5684C136.754 41.0539 137.099 40.5249 137.444 39.9814L137.982 39.1481C138.154 38.8655 138.298 38.5611 138.47 38.2568L140.51 34.4742L141.041 33.5104C141.22 33.1771 141.357 32.7858 141.522 32.4669L142.477 30.293C142.8 29.5684 143.123 28.8438 143.432 28.1191C143.583 27.764 143.762 27.3945 143.891 27.0684L144.272 26.0032C144.775 24.5974 145.27 23.2423 145.708 21.9525C145.816 21.6264 145.945 21.3148 146.046 20.996C146.146 20.6771 146.218 20.351 146.311 20.0394C146.484 19.4162 146.649 18.8075 146.814 18.2206C147.144 17.0467 147.453 15.9452 147.74 14.9452C148.157 12.9308 148.501 11.3221 148.745 10.1264C148.859 9.53773 149.018 8.95874 149.219 8.39453Z" fill="#263238"/>
<path d="M190.57 111.967L183.447 84.6696L165.655 85.1479L171.191 123.242C171.909 131.532 176.734 136.952 184.833 138.271C189.716 139.061 195.008 134.365 198.928 131.329C201.484 129.343 201.937 129.735 204.579 127.314L216.067 118.952L216.347 120.329H216.276L218.221 143.604L241.959 162.445L270.271 139.554L269.625 129.648C269.697 129.648 269.761 129.503 269.625 129.503L268.907 118.285L283.411 135.075C285.116 137.585 287.468 139.577 290.213 140.837C292.958 142.097 295.992 142.577 298.987 142.225C301.983 141.873 304.826 140.703 307.211 138.84C309.595 136.977 311.431 134.493 312.519 131.655L319.987 93.2493L303.587 89.6913L295.912 117.343L277.609 96.0899C267.04 82.1914 254.704 83.3653 254.704 83.3653L231.957 82.9595H231.907C231.232 82.9595 218.523 83.387 209.907 92.6768L190.57 111.967Z" fill="#FF725E"/>
<path d="M278.492 97.6042C278.492 97.6042 278.248 97.4883 277.774 97.3361C277.064 97.116 276.317 97.0373 275.577 97.1042C274.408 97.2311 273.269 97.5596 272.21 98.0752C270.953 98.6404 269.653 99.5245 268.138 100.416C266.519 101.488 264.639 102.089 262.703 102.155C261.626 102.093 260.568 101.848 259.572 101.43C258.553 101.024 257.54 100.524 256.478 100.097C254.264 99.1894 251.835 98.9576 249.491 99.4303C247.05 99.9013 244.81 101.285 242.519 102.626C241.385 103.308 240.201 103.904 238.979 104.409C237.782 104.882 236.526 105.189 235.246 105.322C232.807 105.597 230.339 105.253 228.065 104.322C226.059 103.422 224.167 102.283 222.429 100.93C220.77 99.7201 219.241 98.568 217.74 97.6912C216.393 96.8964 214.943 96.294 213.432 95.9013C212.293 95.6104 211.114 95.5124 209.943 95.6114C208.947 95.7234 207.977 96 207.07 96.4303L207.236 96.3288C207.35 96.2636 207.523 96.1694 207.76 96.0535C208.447 95.7569 209.172 95.5594 209.914 95.4665C211.103 95.3413 212.305 95.4197 213.468 95.6984C215.005 96.0739 216.482 96.6667 217.855 97.4593C219.377 98.3288 220.921 99.481 222.587 100.677C224.31 102.005 226.186 103.12 228.173 103.995C231.589 105.379 235.398 105.4 238.829 104.053C240.035 103.555 241.201 102.964 242.318 102.285C244.594 100.952 246.878 99.539 249.405 99.0607C251.817 98.5886 254.314 98.8405 256.585 99.7854C258.739 100.662 260.657 101.793 262.689 101.858C264.721 101.923 266.487 101.032 267.988 100.198C269.488 99.3651 270.817 98.452 272.102 97.9013C273.188 97.3899 274.354 97.0759 275.548 96.9738C276.303 96.9155 277.062 97.0193 277.774 97.2781C278.028 97.3517 278.27 97.4615 278.492 97.6042Z" fill="#FAFAFA"/>
<path d="M291.682 111.199C291.599 111.553 291.469 111.894 291.295 112.213C290.803 113.135 290.096 113.921 289.234 114.503C287.88 115.442 286.305 116.007 284.667 116.141C282.509 116.282 280.342 116.185 278.205 115.851C275.864 115.612 273.179 115.322 270.544 116.199C269.198 116.712 267.919 117.391 266.738 118.22C265.473 119.116 264.135 119.901 262.739 120.568C259.66 121.917 256.256 122.318 252.952 121.72C251.212 121.411 249.534 120.816 247.983 119.96C246.404 119.105 244.932 118.047 243.41 117.061C241.947 116.034 240.346 115.224 238.656 114.655C237 114.176 235.261 114.065 233.558 114.329C230.184 114.829 227.096 116.199 224.066 117.032C222.58 117.484 221.043 117.742 219.492 117.8C218.022 117.858 216.556 117.612 215.184 117.076C212.535 115.974 210.582 114.09 208.851 112.467C207.35 110.928 205.694 109.551 203.911 108.358C202.545 107.49 200.995 106.959 199.388 106.807C198.373 106.714 197.35 106.838 196.386 107.17C195.733 107.416 195.424 107.626 195.41 107.605C195.704 107.398 196.023 107.228 196.357 107.097C197.328 106.726 198.368 106.577 199.402 106.663C201.038 106.789 202.621 107.309 204.019 108.177C205.833 109.359 207.518 110.731 209.045 112.271C210.79 113.887 212.728 115.728 215.313 116.786C216.648 117.312 218.075 117.559 219.507 117.51C221.029 117.445 222.538 117.182 223.994 116.728C225.502 116.3 227.031 115.764 228.604 115.278C230.202 114.691 231.848 114.244 233.522 113.945C235.277 113.667 237.071 113.778 238.778 114.271C240.502 114.855 242.136 115.679 243.632 116.721C245.162 117.72 246.626 118.778 248.17 119.619C249.687 120.456 251.329 121.038 253.031 121.344C256.265 121.933 259.599 121.547 262.617 120.235C265.489 118.974 267.715 116.786 270.458 115.887C271.767 115.472 273.135 115.274 274.507 115.3C275.761 115.323 277.012 115.415 278.255 115.576C280.367 115.919 282.51 116.033 284.646 115.916C286.255 115.8 287.807 115.268 289.155 114.373C290.008 113.809 290.718 113.052 291.23 112.163C291.567 111.561 291.661 111.192 291.682 111.199Z" fill="#FAFAFA"/>
<path d="M312.433 129.648C312.132 129.338 311.797 129.064 311.435 128.829C310.408 128.263 309.215 128.08 308.068 128.315C306.382 128.756 304.824 129.596 303.523 130.764C302.74 131.38 301.929 132.047 301.01 132.648C300.082 133.324 299.019 133.787 297.895 134.004C296.771 134.222 295.614 134.19 294.504 133.909C293.483 133.682 292.478 133.387 291.496 133.025C290.555 132.706 289.672 132.38 288.825 132.155C288.041 131.947 287.241 131.812 286.434 131.75C285.269 131.625 284.091 131.815 283.023 132.3C282.305 132.67 281.946 133.025 281.917 132.981C281.985 132.889 282.064 132.806 282.154 132.735C282.254 132.638 282.362 132.551 282.477 132.474C282.625 132.357 282.784 132.255 282.951 132.17C284.031 131.607 285.243 131.357 286.455 131.445C287.281 131.491 288.101 131.615 288.904 131.815C289.772 132.032 290.67 132.351 291.603 132.663C293.463 133.271 295.603 134.018 297.829 133.597C298.898 133.367 299.913 132.929 300.816 132.307C301.713 131.721 302.517 131.061 303.314 130.452C304.663 129.267 306.277 128.431 308.017 128.018C309.222 127.796 310.465 128.025 311.514 128.663C311.781 128.85 312.023 129.071 312.232 129.322C312.313 129.421 312.38 129.531 312.433 129.648Z" fill="#FAFAFA"/>
<path d="M316.038 108.822C315.858 108.99 315.649 109.123 315.42 109.213C314.81 109.49 314.156 109.657 313.489 109.706C312.502 109.772 311.511 109.681 310.552 109.438C309.395 109.129 308.258 108.747 307.149 108.293C306.057 107.851 304.927 107.512 303.774 107.278C302.824 107.108 301.852 107.108 300.902 107.278C300.035 107.46 299.215 107.817 298.489 108.329C298.632 108.127 298.813 107.955 299.021 107.822C299.57 107.435 300.19 107.162 300.844 107.017C301.815 106.808 302.816 106.784 303.796 106.945C304.98 107.167 306.139 107.507 307.256 107.959C308.354 108.403 309.473 108.789 310.61 109.119C311.534 109.366 312.489 109.479 313.446 109.452C314.34 109.397 315.217 109.183 316.038 108.822Z" fill="#FAFAFA"/>
<path d="M268.426 136.213C267.819 135.886 267.193 135.596 266.552 135.343C264.767 134.739 262.871 134.541 261.001 134.764C258.242 135.137 255.569 135.995 253.103 137.3C250.231 138.655 247.237 140.467 243.726 141.648C242.021 142.224 240.239 142.534 238.441 142.568C236.765 142.54 235.104 142.252 233.515 141.713C232.092 141.227 230.694 140.666 229.329 140.032C228.044 139.459 226.852 138.901 225.739 138.467C224.012 137.711 222.182 137.222 220.311 137.017L219.428 136.967H218.774C218.595 136.984 218.415 136.984 218.236 136.967C218.413 136.926 218.593 136.902 218.774 136.894L219.42 136.836C219.679 136.836 219.981 136.836 220.318 136.836C222.214 136.981 224.075 137.428 225.832 138.162C226.96 138.59 228.159 139.133 229.423 139.691C230.784 140.31 232.176 140.857 233.594 141.329C235.15 141.847 236.774 142.123 238.412 142.148C240.171 142.111 241.915 141.803 243.582 141.235C247.036 140.104 250.044 138.336 252.916 136.967C255.427 135.656 258.151 134.814 260.958 134.481C262.863 134.279 264.788 134.527 266.58 135.206C267.24 135.45 267.862 135.789 268.426 136.213Z" fill="#FAFAFA"/>
<path d="M170.365 117.692C170.467 117.618 170.581 117.563 170.702 117.532C171.062 117.436 171.443 117.451 171.794 117.576C172.356 117.759 172.854 118.101 173.23 118.561C173.678 119.177 174.058 119.84 174.364 120.539C174.75 121.348 175.289 122.072 175.951 122.67C176.733 123.326 177.636 123.818 178.608 124.119C180.88 124.788 183.276 124.905 185.601 124.46C187.952 123.999 190.332 123.711 192.724 123.597C194.713 123.553 196.671 124.1 198.354 125.17C199.5 125.878 200.397 126.933 200.917 128.184C201.108 128.644 201.21 129.136 201.219 129.634C201.096 129.17 200.95 128.713 200.781 128.264C200.23 127.073 199.334 126.08 198.21 125.416C196.558 124.409 194.653 123.906 192.724 123.967C190.352 124.098 187.991 124.396 185.659 124.858C183.27 125.314 180.807 125.182 178.479 124.474C177.466 124.14 176.53 123.603 175.729 122.894C175.043 122.263 174.492 121.499 174.106 120.648C173.821 119.958 173.465 119.299 173.043 118.684C172.708 118.243 172.258 117.904 171.744 117.706C171.299 117.542 170.813 117.537 170.365 117.692Z" fill="#FAFAFA"/>
<path d="M185.939 95.5536C185.196 94.957 184.345 94.5116 183.433 94.242C182.442 93.9836 181.412 93.9148 180.396 94.0391C179.156 94.2184 177.948 94.5721 176.806 95.0898C175.571 95.626 174.429 96.242 173.374 96.7637C172.442 97.2435 171.483 97.6669 170.501 98.0318C169.834 98.2685 169.146 98.4455 168.448 98.5608C168.194 98.6177 167.932 98.6348 167.672 98.6115C168.599 98.3858 169.512 98.1075 170.408 97.7782C171.37 97.3844 172.312 96.9418 173.23 96.4521C174.271 95.9159 175.42 95.2927 176.676 94.742C177.86 94.2082 179.116 93.8565 180.403 93.6985C181.462 93.5809 182.534 93.6795 183.555 93.9884C184.242 94.198 184.882 94.5374 185.444 94.9884C185.64 95.1462 185.808 95.3375 185.939 95.5536Z" fill="#FAFAFA"/>
<g opacity="0.3">
<path opacity="0.3" d="M237.931 159.213C247.143 153.822 257.813 147.496 263.134 138.198C266.537 132.242 268.232 125.112 268.878 118.271L270.264 139.539L241.952 162.43L237.931 159.213Z" fill="black"/>
</g>
<g opacity="0.2">
<path opacity="0.2" d="M214.035 88.8584C211.996 96.9047 207.584 104.137 201.384 109.597C199.908 111.001 198.177 112.104 196.286 112.844C195.34 113.207 194.328 113.361 193.318 113.295C192.309 113.229 191.325 112.944 190.434 112.46L190.57 111.967L204.931 97.6265L214.035 88.8584Z" fill="black"/>
</g>
<path d="M192.394 123.365C192.337 123.365 192.566 122.706 192.76 121.648C193.003 120.266 193.015 118.853 192.796 117.467C192.567 116.082 192.106 114.746 191.432 113.517C190.908 112.575 190.484 112.068 190.534 112.01C190.99 112.394 191.372 112.858 191.662 113.38C192.42 114.607 192.93 115.974 193.162 117.402C193.401 118.832 193.352 120.295 193.019 121.706C192.912 122.293 192.7 122.855 192.394 123.365Z" fill="#263238"/>
<path d="M188.28 119.742C189.866 117.639 190.591 115 190.305 112.373C190.485 112.725 190.583 113.114 190.592 113.51C190.787 115.433 190.259 117.36 189.113 118.909C188.668 119.474 188.316 119.742 188.28 119.742Z" fill="#263238"/>
<path d="M214.997 104.742C215.098 104.742 215.715 110.539 216.311 117.641C216.907 124.742 217.36 130.568 217.252 130.575C217.144 130.583 216.534 124.778 215.938 117.677C215.342 110.575 214.89 104.749 214.997 104.742Z" fill="#263238"/>
<path d="M253.326 82.5391C253.395 82.6621 253.448 82.7936 253.483 82.9304C253.615 83.3085 253.718 83.696 253.792 84.0898C254.069 85.5548 254.047 87.0612 253.728 88.5173C253.258 90.6944 252.17 92.6862 250.597 94.2492C248.598 96.108 245.995 97.1667 243.277 97.2267C240.559 97.2867 237.913 96.344 235.834 94.5753C234.197 93.0823 233.024 91.1413 232.46 88.9883C232.079 87.5477 231.989 86.0446 232.194 84.568C232.255 84.1708 232.343 83.7785 232.46 83.3941C232.489 83.2562 232.535 83.1224 232.596 82.9956C232.639 82.9956 232.46 83.5608 232.338 84.5898C232.19 86.0499 232.317 87.525 232.711 88.9376C233.294 91.0222 234.455 92.8953 236.057 94.3361C238.08 96.03 240.64 96.9303 243.268 96.8717C245.895 96.8131 248.414 95.7996 250.36 94.0173C251.646 92.7526 252.615 91.1972 253.186 89.4797C253.758 87.7623 253.917 85.932 253.649 84.1405C253.491 83.097 253.282 82.5536 253.326 82.5391Z" fill="#263238"/>
<path d="M295.043 126.191C294.814 124.688 294.773 123.162 294.921 121.648C294.946 120.125 295.159 118.611 295.553 117.141C295.66 117.141 295.431 119.177 295.294 121.67C295.158 124.162 295.15 126.191 295.043 126.191Z" fill="#263238"/>
<path d="M297.922 127.51C297.657 127.056 297.452 126.568 297.312 126.061C296.904 124.838 296.571 123.592 296.314 122.329C296.055 121.066 295.87 119.788 295.761 118.503C295.689 117.971 295.689 117.433 295.761 116.901C295.868 116.901 296.084 119.322 296.694 122.256C297.305 125.191 298.03 127.474 297.922 127.51Z" fill="#263238"/>
<path d="M268.892 127.93C268.785 127.93 268.548 123.851 268.361 118.807C268.174 113.764 268.11 109.684 268.21 109.677C268.311 109.67 268.548 113.756 268.734 118.793C268.921 123.829 268.993 127.923 268.892 127.93Z" fill="#263238"/>
<path d="M243.144 96.0898C240.551 96.0387 238.075 94.9914 236.22 93.1616C234.366 91.3318 233.273 88.8572 233.163 86.242C232.998 82.271 232.862 78.6261 232.862 78.6261C232.862 78.6261 224.626 77.7421 224.131 69.503C223.635 61.2638 224.131 42.2494 224.131 42.2494C228.681 40.0054 233.742 39.0285 238.791 39.4196C243.84 39.8107 248.694 41.5556 252.852 44.474L254.108 45.3581L253.505 85.9377C253.489 87.292 253.208 88.6299 252.678 89.8742C252.148 91.1186 251.379 92.2449 250.417 93.1884C249.454 94.1319 248.315 94.8739 247.067 95.3719C245.819 95.8698 244.486 96.1138 243.144 96.0898Z" fill="#FFBE9D"/>
<path d="M232.855 78.5104C236.63 78.3942 240.287 77.1483 243.359 74.9307C243.359 74.9307 241.126 80.9886 232.934 80.648L232.855 78.5104Z" fill="#EB996E"/>
<path d="M253.519 53.9451C253.656 53.8799 259.055 51.9958 259.149 57.648C259.242 63.3001 253.606 62.2204 253.591 62.061C253.577 61.9016 253.519 53.9451 253.519 53.9451Z" fill="#FFBE9D"/>
<path d="M255.264 59.8947C255.264 59.8947 255.365 59.9599 255.53 60.0324C255.761 60.1244 256.017 60.1244 256.248 60.0324C256.837 59.8077 257.318 58.8512 257.325 57.8585C257.333 57.3758 257.232 56.8977 257.031 56.4599C256.975 56.2909 256.882 56.1373 256.757 56.0114C256.632 55.8855 256.48 55.791 256.313 55.7353C256.2 55.7083 256.082 55.7217 255.978 55.7733C255.875 55.8249 255.792 55.9115 255.745 56.0179C255.673 56.1773 255.745 56.286 255.681 56.3005C255.616 56.315 255.559 56.2063 255.602 55.9672C255.629 55.8282 255.702 55.7028 255.81 55.6121C255.885 55.5517 255.971 55.5071 256.064 55.4809C256.156 55.4548 256.253 55.4477 256.348 55.4599C256.579 55.5029 256.795 55.6047 256.976 55.7556C257.157 55.9065 257.297 56.1016 257.382 56.3223C257.63 56.8056 257.756 57.3433 257.749 57.8875C257.749 59.0251 257.167 60.0976 256.363 60.3512C256.214 60.397 256.056 60.4084 255.902 60.3846C255.748 60.3608 255.601 60.3023 255.472 60.2135C255.279 60.0251 255.25 59.902 255.264 59.8947Z" fill="#EB996E"/>
<path d="M228.065 54.7205C228.061 55.0282 228.177 55.3251 228.388 55.5474C228.599 55.7696 228.888 55.8995 229.193 55.909C229.341 55.9208 229.489 55.9026 229.63 55.8555C229.771 55.8085 229.901 55.7334 230.013 55.6349C230.125 55.5363 230.216 55.4162 230.281 55.2815C230.346 55.1469 230.384 55.0005 230.392 54.851C230.396 54.5438 230.281 54.2472 230.072 54.0239C229.863 53.8007 229.576 53.6685 229.272 53.6553C229.123 53.6435 228.973 53.6619 228.831 53.7093C228.69 53.7567 228.559 53.8323 228.446 53.9315C228.334 54.0308 228.242 54.1517 228.177 54.2872C228.111 54.4227 228.074 54.5701 228.065 54.7205Z" fill="#263238"/>
<path d="M226.629 53.5395C226.773 53.6989 227.656 53.0323 228.913 53.0395C230.169 53.0467 231.067 53.6772 231.232 53.5178C231.397 53.3583 231.153 53.1772 230.751 52.8801C230.208 52.4982 229.56 52.2957 228.898 52.3004C228.243 52.2992 227.605 52.5072 227.075 52.8946C226.694 53.1917 226.565 53.4743 226.629 53.5395Z" fill="#263238"/>
<path d="M240.128 54.8656C240.124 55.1732 240.24 55.4701 240.451 55.6924C240.662 55.9147 240.951 56.0445 241.256 56.054C241.404 56.0668 241.554 56.0494 241.695 56.0028C241.837 55.9562 241.968 55.8813 242.081 55.7827C242.193 55.684 242.285 55.5635 242.35 55.4284C242.416 55.2932 242.454 55.1462 242.462 54.996C242.466 54.6876 242.35 54.3899 242.139 54.1665C241.929 53.9431 241.64 53.8117 241.335 53.8004C241.186 53.7885 241.036 53.8069 240.894 53.8543C240.752 53.9018 240.622 53.9773 240.509 54.0766C240.397 54.1758 240.305 54.2968 240.24 54.4323C240.174 54.5677 240.136 54.7151 240.128 54.8656Z" fill="#263238"/>
<path d="M238.994 53.8004C239.137 53.9526 240.028 53.2932 241.284 53.2932C242.541 53.2932 243.438 53.9308 243.596 53.7787C243.754 53.6265 243.517 53.4308 243.115 53.141C242.573 52.756 241.925 52.5532 241.263 52.5613C240.608 52.5616 239.97 52.7694 239.439 53.1555C239.058 53.4308 238.922 53.7062 238.994 53.8004Z" fill="#263238"/>
<path d="M234.434 63.2206C233.77 63.01 233.083 62.8835 232.388 62.8438C232.065 62.8438 231.763 62.7496 231.713 62.5249C231.684 62.1921 231.757 61.8583 231.921 61.5684C232.23 60.7858 232.546 59.9597 232.876 59.0974C234.19 55.5829 235.145 52.6989 235.03 52.6481C234.915 52.5974 233.702 55.3945 232.388 58.909C232.072 59.7786 231.763 60.6046 231.476 61.3945C231.274 61.7841 231.215 62.2335 231.311 62.6626C231.357 62.777 231.428 62.8795 231.519 62.9623C231.609 63.0452 231.718 63.1062 231.835 63.1409C232.014 63.1867 232.197 63.2111 232.381 63.2133C233.062 63.3029 233.752 63.3053 234.434 63.2206Z" fill="#263238"/>
<path d="M238.118 64.068C237.917 64.068 237.91 65.4303 236.739 66.4086C235.569 67.3868 234.118 67.2346 234.111 67.4303C234.111 67.5172 234.434 67.6984 235.052 67.7129C235.852 67.7237 236.63 67.4491 237.249 66.9375C237.841 66.4462 238.222 65.7424 238.312 64.9738C238.376 64.4013 238.225 64.0607 238.118 64.068Z" fill="#263238"/>
<path d="M238.671 48.8072C238.793 49.1478 240.049 48.9884 241.543 49.1695C243.036 49.3507 244.207 49.7492 244.415 49.4449C244.508 49.2927 244.3 48.9666 243.819 48.6333C243.176 48.2253 242.45 47.9697 241.695 47.8856C240.94 47.8015 240.176 47.8912 239.461 48.1478C238.886 48.3724 238.62 48.6406 238.671 48.8072Z" fill="#263238"/>
<path d="M227.096 49.8657C227.319 50.1555 228.188 49.8657 229.25 49.8657C230.313 49.8657 231.174 50.0613 231.404 49.757C231.49 49.6121 231.354 49.3222 230.966 49.0324C230.451 48.6994 229.847 48.5349 229.236 48.5613C228.625 48.5705 228.032 48.7733 227.541 49.1411C227.118 49.4526 227.003 49.728 227.096 49.8657Z" fill="#263238"/>
<path d="M219.973 36.8005C219.917 36.2879 219.99 35.7693 220.186 35.2929C220.382 34.8165 220.694 34.3978 221.093 34.0759C221.506 33.775 222.01 33.631 222.517 33.6695C223.025 33.7079 223.502 33.9263 223.865 34.286C223.789 33.9408 223.786 33.5834 223.856 33.237C223.926 32.8905 224.066 32.5626 224.269 32.2744C224.472 31.9863 224.733 31.7443 225.034 31.564C225.336 31.3838 225.671 31.2693 226.019 31.2281C227.355 31.1411 228.496 32.1628 229.782 32.5179C231.068 32.7826 232.405 32.6225 233.594 32.0614C234.808 31.5686 235.942 30.8875 237.184 30.4382C239.774 29.4824 242.633 29.5971 245.139 30.7573C247.646 31.9175 249.597 34.0295 250.568 36.6338C251.482 36.4077 252.442 36.4668 253.321 36.8032C254.201 37.1396 254.958 37.7375 255.494 38.5179C256.538 40.1153 256.955 42.0474 256.664 43.9382C256.487 45.2036 256.171 46.4454 255.724 47.6411C255.724 47.7498 255.724 47.8512 255.724 47.9599C255.638 52.4961 255.128 57.8294 253.211 57.8584C249.865 57.9091 250.662 51.5468 250.662 51.5468C246.555 49.9526 248.084 43.7425 247.072 42.8005C246.059 41.8585 243.898 39.6701 235.303 44.1048C231.964 45.8222 227.527 45.7715 225.1 45.2135C225.03 45.2032 224.96 45.1887 224.892 45.17H224.842H224.77C223.991 44.9732 223.247 44.6554 222.565 44.228C221.759 43.7603 221.122 43.0441 220.749 42.1845C220.57 41.7552 220.519 41.2827 220.602 40.8246C220.685 40.3665 220.898 39.9427 221.216 39.6048C220.536 38.8142 220.104 37.8385 219.973 36.8005Z" fill="#263238"/>
</svg>
