<svg width="24" height="25" viewBox="0 0 24 25" fill="none" xmlns="http://www.w3.org/2000/svg">
<rect x="0.37585" y="0.409542" width="23.2483" height="23.2483" rx="4.88605" stroke="#EDE2FC" stroke-width="0.751701"/>
<path d="M19.15 8.25183C19.1607 8.40182 19.1607 8.55185 19.1607 8.70184C19.1607 13.2768 15.6786 18.5483 9.31428 18.5483C7.35356 18.5483 5.53214 17.9804 3.99999 16.9947C4.27857 17.0268 4.5464 17.0376 4.8357 17.0376C6.45354 17.0376 7.94285 16.4911 9.13214 15.559C7.6107 15.5268 6.3357 14.5304 5.89641 13.159C6.11071 13.1911 6.32498 13.2125 6.55 13.2125C6.86071 13.2125 7.17144 13.1697 7.46071 13.0947C5.875 12.7732 4.68568 11.3804 4.68568 9.69826V9.65542C5.14638 9.91257 5.68214 10.0733 6.24995 10.0947C5.31781 9.47324 4.70712 8.41254 4.70712 7.21253C4.70712 6.56969 4.87851 5.9804 5.17853 5.46611C6.88211 7.56611 9.44284 8.93752 12.3142 9.08754C12.2607 8.8304 12.2285 8.56257 12.2285 8.2947C12.2285 6.38754 13.7714 4.83398 15.6892 4.83398C16.6857 4.83398 17.5857 5.25184 18.2178 5.92684C18.9999 5.77685 19.7499 5.48755 20.4142 5.09113C20.1571 5.89472 19.6107 6.56972 18.8928 6.99826C19.5893 6.9233 20.2643 6.7304 20.8857 6.46257C20.4143 7.14825 19.825 7.75894 19.15 8.25183Z" fill="#EDE2FC"/>
</svg>
